<svg id="Ebene_3" data-name="Ebene 3" xmlns="http://www.w3.org/2000/svg" viewBox="0 0 784.68 789.82"><defs><style>.cls-1{fill:#1aa0db;}</style></defs><title>brain</title><path class="cls-1" d="M784.57,369.36a1.29,1.29,0,0,0,0-.33l-1.87-23.44a1.36,1.36,0,0,0-.06-0.22,1.27,1.27,0,0,0,0-.19L777.82,333a1.36,1.36,0,0,0,.23-0.81l-1.4-22a1.12,1.12,0,0,0,0-.2,1.47,1.47,0,0,0,0-.22L766.08,283a1.38,1.38,0,0,0-.63-0.69l-5.64-19.17a1.37,1.37,0,0,0,0-.2,1.41,1.41,0,0,0,0-.25,1.32,1.32,0,0,0-.09-0.27,0.79,0.79,0,0,0,0-.08l-11.1-19.82-4.17-19.2v-0.1h0l-5.82-19.4v-0.17l-7.35-16.33v-0.15l-11-18.38h0l-9.8-14.29h0l-8.56-13a1.39,1.39,0,0,0-.92-0.6L689.53,128a1.37,1.37,0,0,0-.8-0.43L664.79,105.4l-0.09-.12a1.35,1.35,0,0,0-.2-0.18l-0.19-.15L623.09,66.8l-0.18-.11-0.16-.12L611.93,61.3a1.36,1.36,0,0,0-.56-0.27l-14.44-7a1.35,1.35,0,0,0-1.13-.55L581.32,46.4h0a0.1,0.1,0,0,1-.09-0.08,1.31,1.31,0,0,0-.22-0.19L580.8,46l-0.26-.08h-0.26l-29.9-14.59a1.26,1.26,0,0,0-1.19-.65h-0.1L534.33,23.5l-0.06-.1a1.37,1.37,0,0,0-1-.64h0L520,20h-0.18a1.29,1.29,0,0,0-.29,0,1.35,1.35,0,0,0-.28.08H519l-0.1.06-14.75-2h-0.09a1.37,1.37,0,0,0-.59,0L486,16a1.35,1.35,0,0,0-.39,0L455.14,8.45h-0.55L444.23,6.32a1.38,1.38,0,0,0-.83-0.17h-0.22a1.37,1.37,0,0,0-.87.24L424.6,10.91A1.35,1.35,0,0,0,424,10.6L398.13,5.34a1.37,1.37,0,0,0-.88.13L377.53,1.3a1.38,1.38,0,0,0-1.15.29L352,0.07A1.43,1.43,0,0,0,351.52,0h-0.66a1.42,1.42,0,0,0-.44.06l-20.67,1.2H329.6L312.46,4.2l-1.18.14a1.38,1.38,0,0,0-1.21.14L291.15,6.71H291l-28.5,7.15h-0.06L223,27.29a1.38,1.38,0,0,0-.72.6l-11.52,5h-0.61l-0.24.08a1.39,1.39,0,0,0-.26.11,1.44,1.44,0,0,0-.21.18l-0.16.14h0a1.43,1.43,0,0,0-.11.22l-50.43,22a1.39,1.39,0,0,0-.62.08l-17.7,7.1h0l-15.07,7.31h-0.1l-12.8,7.69h0l-11.92,7.65h0l-14.84,11H85.63q-0.16.18-.33,0.34h0l-9.61,14.16a1.36,1.36,0,0,0-.22.88L66,123.1l-0.12.06H65.74l-0.07.06h-0.1l-0.14.14a1.38,1.38,0,0,0-.17.18l-0.07.08L54.47,140.45h0l-0.23.11a1.42,1.42,0,0,0-.24.17l-0.1.07-0.08.13-0.1.11-7.65,12.82h0a1.4,1.4,0,0,0-.11.31,1.57,1.57,0,0,0-.06.2,1.24,1.24,0,0,0,0,.22h0L34.06,169.18a1.37,1.37,0,0,0-.23,1.28l-9.54,11h0a1.35,1.35,0,0,0-.47,1l-0.09,19h0v0.12l-6,15.65L6.8,235l-0.12.11h0l-0.09.12a1.36,1.36,0,0,0-.17.23,1.28,1.28,0,0,0-.11.25,1.56,1.56,0,0,1-.06.15l-4,18.28a1.39,1.39,0,0,0-.51,1L0,277.86H0A0.52,0.52,0,0,0,0,278v0.06H0L2.58,302a1.37,1.37,0,0,0,.56,1l4.25,29.7a1.4,1.4,0,0,0,.18,1.55l0.06,0.07,3.82,26.75h0a1.08,1.08,0,0,0,0,.13,1.34,1.34,0,0,0,.07.19l0.09,0.18v0.06l0.06,0a0.11,0.11,0,0,0,.05.09l30.77,34h0L42.78,396l0.06,0.06h0.43l34.52,7H78l92.49,8.32L186.71,447h0a1.33,1.33,0,0,0,.22.28v0.06h0L209.2,467h0.05l0.19,0.11,0.08,0.06h0.24L256,478.85h0l34,8.4h0.59L334,479.07l22.35,50.29,0.07,0.12,0.08,0.13a1.34,1.34,0,0,0,.31.31h0l43.69,29.41v52.24a1.42,1.42,0,0,0,0,.28,1.45,1.45,0,0,0,.1.26v0.1L444,680.72l21.75,60.07v0h0v0.07l0.07,0.11,0.09,0.14,0.17,0.16,0,0.06,62.3,48.26h0.07l0.21,0.12h0.18a1.46,1.46,0,0,0,.39.06h0.18a1.37,1.37,0,0,0,.39-0.11h0.07l0.39-.34h0l0.09-.17a1.29,1.29,0,0,0,.12-0.23h0a1.28,1.28,0,0,0,0-.25h0a1.33,1.33,0,0,0,0-.19h0l-4.06-53.91V660.76h0v0a0.43,0.43,0,0,0,0-.06h0L521,599l30.13,5h0.5l24.7-5.24h0.39l29.19-16.21h0l27.17-13.71h0.06l0.11,0,23-16h0l22.54-16h0l0.15-.14h0l14-15.31h0l0.07-.1h0l0.06-.08h0l14-24h0l8.53-16.66h0a1.35,1.35,0,0,0,.06-0.21,1.5,1.5,0,0,0,.08-0.24l1.59-13.07h0a1.23,1.23,0,0,0,.1-0.25,1.54,1.54,0,0,0,.08-0.25,1.42,1.42,0,0,0,0-.27,1.49,1.49,0,0,0,0-.26v-0.31l16.17-8.68h0a1.43,1.43,0,0,0,.43-0.07h0l17.15-6.12h0.07a1.33,1.33,0,0,0,.35-0.21l0.11-.1a1.33,1.33,0,0,0,.21-0.28,1.11,1.11,0,0,0,.07-0.13v-0.06a1.27,1.27,0,0,0,0-.2,1.3,1.3,0,0,0,0-.16A1.37,1.37,0,0,0,753,449l12.25-15.11v-0.07a0.3,0.3,0,0,1,.11-0.14l10.07-18.37a1.15,1.15,0,0,0,0-.13,1.31,1.31,0,0,0,.11-0.29l4.16-22.44a1.36,1.36,0,0,0-.1-0.75l4.63-20.85A1.38,1.38,0,0,0,784.57,369.36ZM403.38,566.73L439.7,668.66,403.38,611.1V566.73Zm-44.62-38.88-18.5-41.62,54.47,65.83ZM7.42,313.15l13,31.81L10.28,333.12ZM541,578l6.32-6.24,8,7.7-4.85,18.2ZM498.09,729.8l25.16,5.72-10.32,20.81ZM193.64,44.7l10.59,7.06-12.34,4.89Zm49.72-19.27,11.24,6.34L241.47,37Zm47.88-14,8.45,6.7L284.25,22.5ZM320.43,17L306,16.46l4.86-8.78Zm135.83,0.3-10.81.1,8.78-5.57Zm48.83,11.19-8.77,5.67,6.94-11.74ZM749.8,414.24l5.55-18.83,9.92,14.36ZM508.64,694.55l-5.08-11.17,17.55-16.74Zm15.25-27.26v60.8l-13.71-30.14Zm-22,19.15L507.12,698l-9.24,20.67Zm6.79,14.92,14.19,31.2-25.55-5.8Zm-6-21,2.84-22.85h0a1.33,1.33,0,0,0,.14-0.2,0.75,0.75,0,0,0,.21-0.49,0.73,0.73,0,0,0,0-.52,1.37,1.37,0,0,0,0-.29h0l-0.09-.21,16.93,5.54ZM110.09,97.83l4.7,11.08-17.72-1.48ZM608.46,80.67L600.29,92,584.41,70Zm20.88,17.09-26.89-4,8.37-11.63Zm29.54,24.89-13.33,21.21-9.36-40.34Zm16.93,14.27-27.72,8.15L661,124.48Zm90.6,178.81-3.34,17.68-12.17-12.5Zm-292.8,264.5,10.83-7-1.24,29.62ZM26.33,292.08l-1.67-14H35.44l-2.29,5.39h0a1.43,1.43,0,0,0-.3.45h0Zm25.74-71.53L44,229l-5-9.08ZM73,156.3l-8.72,8.1L64,151.61ZM180.13,81.74l-16.54,5.72,6.46-16.91ZM309.3,32.82l-11.54-.41,4.48-10.88Zm17.52,0.62L315.06,33l7.32-11.71ZM344,34.06l-12.35-.44,8.19-13.34Zm71.12,2.57,7.82-5,1.2,6.49-11-.13Zm80.44,22.19L470.6,53l19.74-12ZM515.08,62l-14.84-1.89,10.68-13.78Zm172.75,96.11-17.2,2.15,8.28-18.2Zm13.24,23.8-16.34-3.74,5.35-16Zm28.74,81-28.09-9L725,239.65ZM365.28,454.17l4.5-2.41L384,464l-43.52,10.71ZM82.75,151.11L84.31,150l-1.52,3.5-3.32.65ZM552.47,79.44l5.2,5a1.35,1.35,0,0,0,.39.6l1.24,1,2.38,3.46L548,94.82ZM683,427.82l-31,5.93,24.49-18.3L683.56,426ZM524.54,546.38L512.4,537.3l18.68-12.11Zm-328.2-183.7-13.78-7.35,27.28-5.23ZM55.44,323.35l5.68,7.36-4.59,3.15Zm21.4-165.82,4-.78a0.18,0.18,0,0,1-.06.13l-0.32,1.3-4,1.85ZM132,106.77L130,109l1-3.19ZM248.58,64.2l6,1.78-7.23,3Zm16-7.72-2.84,2.9,1.07-3.4Zm127-10.78L387,43.58l0.6-1.84Zm50.77-2.12L444,60.16,430.49,49.91Zm293,246.52v8.53l-22.7-18.48L731,268.69Zm-425,99.62-0.12-.06-0.24-.12h-0.22a1.49,1.49,0,0,0-.32,0h-0.11l-16.81-3.15h-0.07l-0.24-.1-0.26-.06a1.28,1.28,0,0,0-.28,0h-0.15l-15.11-2.83,35.26-30.12,10.92,38.56-0.3.16ZM166.54,338.16l16.71-27.7-6.93,41ZM100.69,140.79l3.43,5.29h-6ZM95,146.07H89.93l7.71-5.41ZM118.3,131l9.57,7.48-18.3,6.93Zm20-18.21h0a1.32,1.32,0,0,0,.95,0l0.13-.06a1.4,1.4,0,0,0,.31-0.21h0l13.8-2.8,2,21.54-25-16.88ZM230.06,79.2L222.9,96.64h-0.17l-8-11.08Zm45.6-18.93L271.4,85.36,248,71.74Zm20.72-8.6,16,0.46L297.23,74.86l-18-16ZM507.25,92.53l-2.44,7.59a1.4,1.4,0,0,0-.26.49l-9.44-1.82ZM578,113.22l-24.71-1.37L563.71,92.5Zm130.89,236.6,17.56-13.24,0.82-.59,0.35,18.35ZM262.45,344.9l46.71,6.8L273.66,382Zm-49.15,1.56-6.06-10.15,12.37-8.67-6.29,18.82h0Zm-75.06-11.33-5.67-14.27,9.78,6.19ZM110.64,337l-8.95-23.08,24.87,4.88ZM244,97.12l-18.14-.41,7-17Zm34.21-35.38,17,15.08-21,9.78-0.09-.12h0Zm74.08-7.15,10.86,14.15L341.73,66Zm45.89-3.88,8.53,5.88h-8.24Zm46.36,14.57L447,87,428.43,72.5ZM577.82,116L556,135.8l-4.49-21.24Zm12.44,15,3.16,9.88L557.71,138l23-20.85ZM724.8,334.31h0l-6.5,4.9,3.93-6.68,3.27,1.27Zm-40.94,48.28,4.33,3-2.27,2.07Zm-327.14-5.92,0.21,7.47-12.17-1.06Zm2.82,0.57,12.07,8.18-11.87-1ZM374.47,384L363,376.23l11.33,1.19Zm-11.66-10.58,11.43-6.13,0.1,7.34Zm-154.19-48.8L220,319.74l0.34,3ZM82.85,235.1h0L83,235l0.12-.1,0.08-.11,0.07-.1v-0.07h0l7.22-14.12,2.71,27.06-0.29.29-0.09.05L74,240.78Zm107.78-87.21L172.14,134l15.71-14ZM319.7,73.39l4.41,18.15L301.74,77.67ZM551.48,128l2,9.4-5.34-3.17Zm53.67,49.57-42.36-7.3,32.09-24.79ZM628.46,226l5.3,25.92L615,238.2Zm27.91-17.22,6.58,5.77-9.49,2.77Zm-17,166.95,0.06-.2,23.92-14-2.87,20.54Zm-20.15,55.82,0.21-.14,2.65,4.43-14.92.47Zm-20-.45,3.91-2.46L602,433.75Zm-206.78-56L381,367.16l11.13,1.06Zm3.54,2a1.37,1.37,0,0,0-.69-1.11l-0.42-7.48,14.54,1.39ZM250,293.27l0.47-.16h0a1.4,1.4,0,0,0,.92,1.75l8.11,2.51-7.5,3.84ZM144.4,307.2l8.72-7.87-4.22,13.49Zm-24.83-104-0.17.06h-0.18l-2.55,1,0.67-2.72,5.82,1.14Zm-11.93-3.5,7,1.36-0.79,3.21Zm83.38-48a1.4,1.4,0,0,0,.13.46l-8,5.84-9.44-19.29Zm11.81-9.06,1-.52-0.86.79Zm57.91-27.4H237.81l9.42-14.35ZM285.92,107l-19.81,7.37,7.37-24ZM425.14,74.26l-4.31,25.49-5.56-20.52h0ZM666.59,290.82l-2.34,3.08-2-6.35,4.83-.43Zm18.33,10,4.24,17-16.64-3.07Zm24.3,9.94,2.29,15.14-16.34-6.54Zm-20.48,44.88h-0.52l-9.51-14.94L694.85,342ZM313.93,297l-8.81.78,9.11-6,3.23,4.29ZM251,290h-0.3l-0.6.21,0.78-28.9L302,284ZM154.55,138.36L157,137v5.27l-3.58.28,1.15-4.14A0.06,0.06,0,0,1,154.55,138.36ZM366.41,71.8l5.31,6.87L362.12,84Zm46.46,9.32,5.49,20.24L399,90.21Zm51.34,48.38,3.85,5-7.26,4.79ZM636.56,258.36l15.2,27.76L609.33,296Zm20.28,21.43,1.67,5.27-2.32.21Zm3,0.13,5.39,4.55-3.83.34Zm-12.69,68.73,12.5-14.5,14.2,6.15-9.06,17.17Zm-29.06,12.11,25.16-9.87L637.1,373.6ZM431.28,333a0.2,0.2,0,0,1,.06-0.14l0.08-.14,44.87-13.42-22.22,55.49ZM143,272a1.47,1.47,0,0,0-.25.21L146.57,258l6.64,8.39Zm12-3.36,3.7,4.67-12.68.24Zm-40.23-7.54a0.74,0.74,0,0,0-.1-0.11l-0.37-.27,6.59-21.65,21.58,15.51ZM131.9,200l0.38-1.09,5.66,1.91-5.6.72v-0.05A1.4,1.4,0,0,0,131.9,200Zm18.39-44.68,10.1,19.28-19,2.44ZM376.91,89.15l-2.71,9.53-4.65-3.88ZM367.34,93l-4.74-4L374,87.88Zm88.89,51-8.08,23.19L425,132.73Zm102,47.45-5.48,5-5-8.67Zm-10.36-6.56,5.13-4.33,4.59,7.7Zm7.3-6.16,3.27-2.76,0.89,9.74Zm-1.45-2.44-4.63-7.78,8.15,4.81Zm-4.77-11.11,3-2.35,3.58,6.22Zm-2.76-1.38L546.26,153l4.26,7.4Zm3.34-10.8,5.74,3.53-2.55,2Zm-3.39,16,5.39,9.06-5.48,4.62ZM545,188.63l5.62,9.7-9.5,8.71Zm46.74,64.69a1.39,1.39,0,0,0-.32.42l-3.86,3.45L587,253l8.36-2.92Zm77.82,64.49,4.16,19.39-13.2-5.72h0ZM464.41,372.08l10.3-9-1.14,3.68ZM310.16,283l-0.49.06-1.49-38.73L348,271.6Zm-172-88.25,3.85,2-0.35,1.3Zm0.92-2.67,4.23-.27-0.57,2.13Zm49.18-28.8-3.81.88-0.23-2.08ZM628.12,317l2,3.39-6.44,1.31Zm-6.6,8,10.16-2,3.35,5.58Zm11,5.75L623,333.2l-2-5.41Zm-15-2.48,0.47-.5,2.24,6.09L611.7,336Zm5.11,18-9.28,2.17-2.92-7.07Zm-10.79-7.34,9.37-2.38,2.65,7.2Zm-4.32,2.72,3.08,7.44-10.51,2.46Zm-7,12.69,11.21-2.63,2.32,5.62Zm11,5.29-3.26,2-5.67-4Zm3-8.56,7.75-1.82-5.5,7.24Zm12.24-7.73-2.75-7.48,10.45-2.65Zm7.89-20.94,9.49-1.93-6,7.83ZM633,319.85l-1.88-3.14,8.93,1.71Zm-17.62,6.61v0.07l-0.06,0-18,23.93,8.66-49.6,20.8,13.46ZM603,301.54l-8.8,50.75L567.56,325ZM511.85,349l50-21.25-16.06,42.82ZM498,351l-6.68-2.43,8-7Zm-76.21-95.09,31.54-24.29,8,28.35Zm-253-75.52-4.14.75-0.4-3Zm-1.33-3.76,4.12-.6,0.59,2.88Zm-5.56,5-5.6,1,5.15-4.3Zm-4.8,3.72,5.18-.94,0.43,3.13Zm0.28,3.11-3.12.26,0.08-1.44Zm-5.81-1.86-0.1,2.4-3,.25Zm-0.29,5.18-0.23,4.05L148.41,192Zm2.82-.24,6.66-.55-7,6ZM165.48,187l-0.42-3.06,5.07-.92Zm9.52-8.2-0.65-3.18,5.24-.76Zm9.78-11.8,5.58-1.28-5.23,4.48Zm-2.39,3.87-5.49-2.06,5.14-1.18Zm-4.19,1.42-4.39.63-0.5-2.47Zm11.12,57.41,7.43-4.61-1.36,5.45ZM178,205.49l6.38-30L200,188.87Zm22.72-13.65-3.78,28.8L178.81,208.4Zm-5.62,30.93L185,229.08a1.36,1.36,0,0,0-1.34.83L170,238.41l6.48-28.25ZM183,233.56l-0.3,2.17-6.64,2.14Zm3-1.53,5.69,0.79-6.08,2Zm13.8-12.22,3.63-27.67,13.65,16.94Zm133-82.88H333a1.36,1.36,0,0,0,.47-0.09l0.13-.06a1.39,1.39,0,0,0,.28-0.18l0.11-.1a1.39,1.39,0,0,0,.2-0.27l11.56-5.43L321.7,159.43,315.64,145Zm22.66-28.51,5.9,4.52L354,121.68Zm85.3,77.23-6.7-2.95,11.23-8.86v0.06Zm5.55-6.59,1.94,9.89-4.92-2.17Zm-29.5,38.1-0.08.09-0.1.08-6,6.91L413,213.77l6.07,1.54Zm-104.1-70.79h0a1.37,1.37,0,0,0,.29,0l5.49,12.81-18.25-6.92Zm120.8,54.49-5.36-2,3-9.41Zm-8-2.92-7.36-2.69,11-8.65ZM420,212.63L413.73,211,416,200.81Zm-1.92-14.46,6.69,2.44-2.85,8.95ZM411,210.35l-8.69-2.2,0.62-.81L413.57,199Zm-7.94.88,7.33,1.86-1.84,8.23Zm-15.93,12.38h-0.06a1.33,1.33,0,0,0-.35.17l-0.11.05h0a1.44,1.44,0,0,0-.24.27l-0.12.15a1.44,1.44,0,0,0-.08.24,1.48,1.48,0,0,0-.08.28h0v0.14l-8.45,11.18-16.36-44.42L399,207.95Zm-75.45-.4,2.07,6.85-2.91-1.26Zm-3.5,4.44-4-1.75,5.21-6Zm5-9.21,4.4,1.43-1.66,7.63Zm0-2.94,7.1-8.16-2.12,9.78Zm10.14-10,6.11,0.89L326.9,216Zm0.9-2.7,8.87-10.2-2.94,11.06Zm11.5-9.19L340,205.1l-7-1Zm1.64-3.65,5.84,0.75-1.56,10.9Zm0.44-2.77,7.06-8.11L343.61,188Zm9.83-7.72,7.86,10-9.12-1.18ZM357.92,188l-9.11-11.6L360,174.78Zm-8-14.59,4.38-4.29,3.87,3Zm10.68-2.88-4.29-3.38,5.66-5.54Zm-1.11-10.41-5.39,5.28-3.39-2.68Zm-8.73-.34,5.39-7.63,5.31,4.47Zm12.33-5.44-5.32-4.48L365.52,139Zm-7.47-6.29-3.37-2.84,9.65-6.06Zm-4.5-.13,2.88,2.42-4,5.72Zm-2.4,16.81,3.35,2.64-4.33,4.24Zm-27.2,36.84h0l1.59-38.15L343.85,176Zm-1.25-37.28-1.44,34.58L289.5,169.57Zm2,46.87,2.78,8.16-4.2-1.35Zm9.92-4.41,7.16,1-10.08,10ZM346,191.08l9.19,1.19L344.29,203Zm17.08-1.57,32.09-23.88a1.37,1.37,0,0,0,.38.09h0L399.19,205Zm-2.25-1.81,2-13a1.31,1.31,0,0,0,.32-2.09l2.22-14.38h0a0.1,0.1,0,0,0,.09-0.07l0.07-.12a1.29,1.29,0,0,0,.14-0.25,1.23,1.23,0,0,0,.08-0.25,1.19,1.19,0,0,0,0-.26,1.22,1.22,0,0,0,0-.28,1.14,1.14,0,0,0,0-.14,0.14,0.14,0,0,0-.06-0.11,1.18,1.18,0,0,0,0-.15l2.43-15.72,25.47,22.47Zm-7.21-46.58,6.68-8.63,3.66,2.14Zm-1-3.28,1.3-9.08,4,2.3Zm2.76-11.46,9.61-4.52-5.4,7Zm-6.53,18.09a1.36,1.36,0,0,0-.15,1l-4,27.76-20.44-12.41L351,129.05ZM297.24,154L318,161.89l-28.69,4.9ZM277,181.43l-1.66-9.31,9.43-3.22Zm0.25,4.91a1.36,1.36,0,0,0,.35-0.57l9.26-14.94L318.6,202.6l-53.42,3.14Zm41,19.09-16.88,19.4-34.93-16.35Zm-10.48,25.09L307.1,235l-2.47-5.86Zm2.66,1.15,3.36,1.45-4.2,4.15Zm9.82-10.92,4.58,1.49-6.24,6.16Zm38.4-28,16.23,44.06-45.5-15.17ZM376.8,242l-1.06,10.47-8.35,2Zm2.77,0.44,6.78,7.48-7.73,1.85Zm1.82-2.16,5.31,0.39,0.21,5.7Zm-1.11-2.89,6-7.95,0.31,8.41Zm8.81-7.88,6.76,9L389.4,238Zm1.33-2.89,7.55,0.51-0.74,8.57Zm0.11-2.8,8.71-11.53-1,12Zm11.3-9,5.51,10.13-6.34-.43Zm25.58-13.21,6,2.18-9,7.34ZM436,198.4l-2.7-13,6.6,2.9Zm-5-16.72H430.9a1.27,1.27,0,0,0-.66.44,1.4,1.4,0,0,0-.16.23h0L402,204.55l-3.72-40.22L444.45,171Zm-35.14-64-1.45,42.79-25.85-22.81v-0.07Zm-29.4,15.22L362,130.26l6-7.81Zm3-17.34-3.92-3,7.23-8.62Zm-1.89,2.07-10.38,4.88,6.55-7.81Zm-56.23,25.09-5.91-3,5.57-8.42Zm-1.85,2.2L298.57,150l5.25-7.94ZM297.21,147l-0.51-8.51,4.61,2.33Zm-2.65,2.57-6.1-4.07,5.48-6.28Zm-2.28,1.84-9.58.68,3.9-4.47ZM292,154.2l-7.45,5.42L281,155Zm-0.6,3.9-3.56,5.74-1.57-2Zm-5.73,7.51-8.66,3,7-5.09Zm-11,18.81L270,186.87l3.1-11.32ZM269,190.5a1.38,1.38,0,0,0,.32-0.12l3.14-1.64-5.33,8.59ZM221.66,209l17.16-32.35,22.11,28.28Zm42.19,1.36L299,226.77l-47,29.77Zm10,35.64-1.65,3.29-3.8.16Zm3.85-1.44,0.2,0.08-0.46.44Zm1.94-2.22,2.07-1.31-1.59,1.51Zm8.42-3.48-1.15,6.49-4-1.64Zm3.29-2.53,2.34,0.85-3.32,4.73Zm1.58-2.41,5.48-3.47-3,4.35Zm9.09-3.74,3.49,8.29-7.42-2.68Zm7.22,11.38,17.18-17,21.93,43.86-39.15-26.8Zm20.35-16.87,45.34,15.11L352.2,269.9Zm45.85,30.7-0.66,6.49-6.68-4.73Zm2.06,7.46,0.83-8.15,7.82-1.87Zm12.3-14.26-0.29-7.75,6.56,0.48ZM400,236.83l0.82-9.54,7,0.47Zm11.48-8.22,39.64,1.25-31.71,24.42Zm103.19,8.26-2.57-.5,1.4-4.91Zm0,2.85-5.77,7.85,2.43-8.5ZM563,324.24l-50.34,21.38,8.73-12.43a1.37,1.37,0,0,0,.75-1.07l22.38-31.87,18.48,24h0A0.05,0.05,0,0,0,563,324.24Zm-57.48,10,0.46,2.69-2.86,1.19Zm45.6-48.66-6.46,1.11-0.53-3.21Zm4.56-1.56-8.48-2.54,8.48-2.83V284Zm-8.31-5.55,8.31-7.28v4.51Zm-6,5.28,0.56,3.41-5.55,1ZM521,328.85l-1.36-3.32,5.48-2.56Zm-2.5,1.29-7.89-.39,6.49-3ZM519.09,317l6.42-3.21,1.43,3.93Zm5.29,3.29-5.79,2.7-1.37-3.36Zm5.18-3.57-1.56-4.2,6.9-3.47Zm-3.38-12.53,7.91-2.8,1.81,3.93Zm5.38,3.44-4.49,2.24-1-2.89Zm6.86-3.52-1.68-3.66,5.66-2Zm-2.86-6.21-1.85-4,6.86,2.27Zm-0.82-6.64,7.6-1.31,0.66,4Zm-4.17,2.48,2.34,5.1-7,2.49Zm-7.78,12.57,1.76,4.83-6.88,3.44Zm-8.47,13.68,1.72,4.19L510,327ZM508,332.43l7.77,0.38-7.19,3Zm8.17,3.24L510,344.38l-1-5.76Zm29.71-41.3-0.81-5L553,288Zm12.55-16.68,9.82-3.27-9.82,8.76v-5.49h0Zm0-3v-5.16l8.51,2.32ZM532,288.16l13.18-45.38,24.33,12.51Zm-3.18.93-31.53-27,44.85-18.88Zm-22.34-43.47L506,238.06l2.45,0.47Zm-2.52,5-1.8-1.92,1.45-4.36ZM503.29,254l-3.55,1.91,1.4-4.2Zm-4.89-2.92v-2.29l0.56,0.6Zm-2.8,5.43-3.2-1.9,3.2-4.23v6.12h0Zm-5.6-3.34-2.08-1.24a1.33,1.33,0,0,0-.2-0.53l5.78-2.85Zm-7.9,10.52-3.72-2.32,6-5.38Zm5.48-8.7,0.72,0.43-1.38,1.82Zm-11.67,4.84-2.34-1.46,8.79-4.33ZM468,262.78l-4.36,7.43-2.85-3.83Zm-8.91,1.33-1.25-1.68,3.83,0.39Zm13.25-3.19,1.39,0.86-4,3.59ZM454.75,263l1.79,2.4-6.35,3.18Zm3.49,4.68,2.75,3.68H450.88Zm18-4.34,3.52,2.19-10,3.58Zm10-.13-0.34.12,4.88-6.46,3.45,2Zm9.59,1.26,31.74,27.21L480.91,314.5Zm30.43,31L500.69,336.8l-0.13.12L481,317.56Zm-19.76,44.3,0.74,4.3L504,340.7Zm57.11-19.35-17.36-22.5,24-21.39Zm7.4-50.28-8.06-2.2,7.72-2.32Zm-8.33-5,7.47-6.55,0.31,4.21ZM573,258.46l7.28,1.42-7,2.11Zm4.54-2,6.93-2.43,0.47,3.87Zm-2.58-2.06,8.63-7.57,0.53,4.36ZM586.26,246l7.28,1.92-6.75,2.36Zm-14.42,7.41-23.24-12L596.09,232Zm-65,1.62,11.34-15.43h0v-0.19l0-.14a1.3,1.3,0,0,0,.06-0.16h0l3.75-20,19.75,21.21Zm9.84-21.85L515.12,226l3.7-4.37Zm-7.4,2.66-2.11-.41,3.35-4ZM500,246.37l-1.09-1.16,2.44-2.88Zm-35.74,13.48L456,230.52l37.42,15Zm-51.13-34,5.68-6.59L436.27,205l15.5,22.06Zm29.33-36.45,5.57,2.45-9.52,7.75Zm8.83-.2-3-15,0.7-1.81,12.52,8.47Zm-51.78-27.52,22.12-29,24.07,35.73Zm19.36-31.49a1.43,1.43,0,0,0,.12.34,1.4,1.4,0,0,0,.41.43l-22,28.91-0.1-.05,1.45-42.8Zm-24-15.26-25.65,18.72,2.39-15.47,4.28-15.05Zm-31.56-4.13-6.81-5.21L369.78,103Zm-12.18,13.09-5.64-3.27,7-9.42Zm-1.73,2.23-12.28,5.77,6.69-9Zm-14.58,4.17L335.35,118l6,3.46Zm-3,3.23-6.92-2.9,7.5-9.5Zm-2.47,2-13.22,6.21,7-8.83ZM314,139.9l-0.33-11,6.76,2.83Zm-11.14-1.49-5.85-3,11.63-5.79Zm-16.75,5.48-2.58-1.72,7.22-3.6Zm-4.47.38,2.62,1.74-4.51,5.17Zm-3.27,11.92,3.94,5.06-6.65,4.84Zm-15.64,46.47L241.26,175.2l29.81-3Zm-43.37,4.69L205.14,189.7l30.38-12.82Zm-18.09-21.09-15.36-13.1,17.25-14.76Zm-19.54-21.48L177,165.86l4.45-3.24Zm-11.2,6,0.51,2.49-4.23.61ZM146.3,187.37l-3.63-7.67,15.13-1.94Zm-0.45,5.88,2.43,3.48-3-1.5Zm35.31-16-6.26,29.36-20.44-6.5Zm-14.34,62.21L151.66,224.3l21.52-12.55Zm15.48-.63-1,6.88-8.43-3.85Zm3-1,6.42-2.07-7.16,7.37Zm14.91-14.94,10.12-6.29-11.51,11.85Zm60.66-15.2a1.36,1.36,0,0,0,.46,1.34l-12.24,47.42-26.85-44.74ZM264.26,252a1.38,1.38,0,0,0,.83.3h0.06l3.09-.13-8.75,2.85Zm16.51-6.28,3.2,1.32-7,2.28Zm15.69-7.65,7.13,2.58L292,244.5Zm66.45,22.27,0.55,6.35a1.36,1.36,0,0,0,.08.27l-1,.2h-0.12l-6.1,1.84Zm3.34,6-0.67-7.71,8.55,6Zm42.87-36,7.8,25.29-36.18,7.61Zm-9.67,37.17-7.84,5.4,3.07-8.15Zm-2.56-4.81,13.92-2.93-8.81,6ZM415,260.41l-5,10.26-5.34-3.21Zm3.43-.65,3.5,5.66-8.18,4Zm2.54-1.21,12.51,1.28-9,4.36Zm12.21,4.54-4.48,6.25h-0.12a1.36,1.36,0,0,0-.61.49l-2-3.28Zm4.54-1.53,1.91,3.71-6.24,2.33Zm2.63-1,9.37,1-7.44,2.78Zm9.64,3.85-4.69,5.73-1.72-3.34Zm13.86,9.67h0a1.38,1.38,0,0,0,.38-0.06h0.06l23-8.27h0l0.14,0,6-3.23L478.15,314l-27.68-39.84h13.31Zm34.59,64.58L477,357.34l-0.17.07a1.26,1.26,0,0,0-.22.18,0.86,0.86,0,0,0-.27.33l-19.25,16.81,22.06-55.08Zm-11.82,14-1.19,6.1-4.65-1Zm-8,7.5,4.57,1-6,3.45ZM489.74,351l6.79,2.47-8.19,4.76ZM502,342.64l4.63,4.91-5.81,3.37Zm8.13,8.59,34.12,21.65-42.9,16.76ZM548.66,371l16.62-44.32,27.92,28.6Zm56.89-7.76-10.29,6.3L597,357.21ZM608,365l3.48,2.44-11.8,2.66Zm-15.51,23.89,1.78-12.64,6.52,4.17ZM603.25,382l4.59,2.94-11.33,3.93Zm-7.48-8.11,14.78-3.33-7.71,7.86Zm14.88-10.45,3.49-2.14a1.4,1.4,0,0,0,.38.33l-0.67,4.06Zm26.83-29.63,5.22,14.35-23,9Zm2.2-2.13,16.85,1.82-11.39,13.21Zm1.44-2.66,6.73-8.85,8.29,10.47Zm-7.21-14.58,8.55-2.4,2.35,4.48Zm-0.77-2.69,5.88-6.25,2.11,4Zm8.89-6.55,7.7,1.89-5.84,1.64Zm3.88-1.93,6.16-1.51,1.47,3.39ZM643.2,301l5.86-6.24L651,299.1Zm8.83-6.43L659.4,297l-5.69,1.39Zm0-3,2.55-2.72,4.55,5.08Zm-3.53-.33h0l-19.71,21L608.3,299.08l42-9.74ZM566,322.62l6.8-45.16,29.65,21.09Zm7.67-53.07-0.35-4.81,8.65-2.59Zm27.53-28.33,5.74-1.29-6,5.24Zm-3.08,4.93-8.71-2.29,9-2Zm-7.89-5.34,8.63-7.56-0.32,5.7Zm-43.64-1.94,12.49-29.39,37,19.64Zm-4.2-29.23L552,200.8l3.21,5.55Zm-4.17,4a1.4,1.4,0,0,0,.46.08h0.25l16.61-3-11.72,27.59-19.6-21ZM496.49,243.7v-0.08l-1.36-42.42,24.55,15.11Zm-4.09-41.8,1.3,40.71L457.31,228Zm-54,1.33,22.84-18.6-8,39.78Zm11.74-33.46,2.93-8.42,7.27,15.33Zm-31.39-43-18-11.74,18.32-7.85ZM398,113.24h0a1.37,1.37,0,0,0-.63-0.2l1.13-19.89,19.79,11.42Zm-2.31-20.36-1.06,18.65L377.79,101Zm-24.43,7L360.1,102l7.17-5.5ZM343,119.2l-6.17-3.58,14-7Zm-20.78,10.28-7.18-3,15.74-7.84Zm-40,10.21L289,109.55l20.4,16.6Zm-10.35,29.64-28.52,2.85,35.13-26.95ZM204,187.13L206,158l29.37,15.93ZM195.8,161l-0.37-2.71,5.23-1.45Zm-2.72.77-4.9-1.47,4.54-1.26ZM170.64,167h0l-7.6,6.35L153,154.15,179,161Zm-30.7,13.43,4,8.47-7.7.49Zm-9.41,14.9-6.9-2.33,7.88-.5Zm3.27-.9,3.38,3.14-4-1.35ZM144,200l0.55-2.05,3.11,1.58Zm28.6,8.75-22,12.84,1.88-19.25Zm-22.54,17.88,14.83,14.83-17.64,11ZM149.37,257l17.78,1.72L155.69,265Zm20.1-.86-15.24-1.47,14.42-3.37Zm-16.42-4.07,14-8.67h0.31l0.86,5Zm17.12-8.47,6.47,3L171,248Zm14.08,3.71,33.94-34.92a1.32,1.32,0,0,0,1.18,0l27,45.06Zm104,1.25h0.17l0.12-.06,16.77-5.47,1.54,40-52.66-23.32Zm36.23,32.95-9.61,6.35-2.12-2.82Zm0.63,2.94-5.48,9.75-3.08-4.09Zm5.44-4,4.63,3.2-10.89,8Zm2.62-1.59,14.6-4.39L337.6,282Zm16.33-2.2-4,10.74-5.5-3.73Zm4-2.7,4.12,4-8,6.46Zm2.1-1.86,7.54-2.27,6.26-1.32-9.59,7.73ZM372.08,270l-6.48,12-3.78-3.72Zm4.23-1.94,3.57,3.54L371,277.9Zm2.49-1.47,11.71-2.47L382.23,270Zm11.86,0.86-3,7.93L384.25,272ZM402,269.27l4.91,3-15,3.91Zm21.29-1.37,2.12,3.44h-9.23Zm17.52,0,1.8,3.49H431.5Zm35.56,48.53L431.8,329.71l16.44-53.81ZM475,369.18a1.36,1.36,0,0,0,.76-0.44L507.5,350.3l-9.24,40.42L458.11,379Zm71,6v52L502.24,392.3Zm48.12-17.32-4.82,34.21h0l-3.47,24.6L549,373.82Zm-3.84,47.3,1.5-10.61,5.53,3.31Zm9.49-5.83,5.9,3.53-12.12,2.93ZM594,392.66l12.56-4.36-7.25,7.54Zm17-9.14-5.67-3.63,7.53-7.67ZM690.48,323l4.17,16.23-16.79-1.36Zm-14.26,12.5-3.85-18,16.5,3Zm-17.6-6.31-8.4-10.61,17.64-3.25Zm-11-13.42-2.4-4.58,7.47-2.1Zm8.67-11.41L654.84,301l4.92-1.21Zm1.2-16.4,1.88-.17,1.11,3.5Zm-84.2-13.61,0.12-.81,21.25-19a1.4,1.4,0,0,0,.26-0.35l15.56-13.68-7.3,55.06Zm28.09-36,0.34-6,6.48,4.44Zm2.62-45-0.1.12a3.91,3.91,0,0,0-.14,1.34l-4.51,32.8L561,207.37l44.45-24.86Zm-49.87,5.47,4.69-4.29-1.93,9Zm0-37.88,2.74-2.17,0.75,8.24ZM556,149.45l0.12,1.34-2.85-5.62,1.49-1.6Zm-2.24,2.86-4.54-2.79,2-2.17Zm-7.5-3.72,0.07-10.92,3.56,7Zm-8.79,62.13v0.19l-14.9,3.81-24.38-15L542.49,187ZM456,225.58l8.62-43.12,26.66,16.82Zm-0.49-65.8,4.3-.06,1.5,12.28ZM454.64,157l3.55-10.19,1.23,10.12Zm6.44-9.58,7.58,9.38-6.42.09Zm8.7-10.7,3.66,4.73L463,141.21Zm-45.87-7.34v-0.11l19.86-11.55,10.52,22.54Zm-2.32-2,0.37-20.5,19.44,9ZM377.24,98.2l5.92-20.82L394.62,90.3Zm1.4-15.14-2.72-3.52,4.43-2.47Zm-2.18,1.76L364.28,86l9.16-5.11Zm-16.57,5.56,5.18,4.32-9.16,7Zm-44.61,32.85L326.08,96h0.22l23.38,10.08Zm-3.5,1.23L291,107.52l32-11.46Zm-32.15,14L265.79,117.7a1.43,1.43,0,0,0,.07-0.32l20.22-7.52Zm-2,2L244,139.09l19.6-19.6Zm-1.07,2.76-37.07,28.43,0.5-28.5,1.36-1.36Zm-39.36-.5-0.5,28.72-29.81-16.17Zm-42.1,12.8-0.18-1.34L198,154.7Zm-2.91-.64,0.19,1.39-3.4.94Zm-39.38-3.54,16.7-14.91,10.77,22Zm2.65-6.12-3.66,3.27,0.85-3Zm-6.88,4.38-3.91-3.53,5-.39Zm-1.44,6.13-2.51,6.11-2.06-3Zm-6.17.82-1.56-2.26,5.25-.26Zm1.34,6.85-6.72.22,4.67-3.19Zm-2.48,2.88-4.39,3.66-2.05-3.45Zm2.24,1.77-3.17,7.7-2-3.39Zm-5.88,8.62-6.61,1.79,5.13-4.28Zm-3.7,3.9-4.27,3.08-1.41-1.54Zm4.28,0.37-3.42,8.31-3.23-3.52Zm-6.66,8.9-6.26.4,4-2.87ZM129.62,198l-0.94,2.72-4.37-4.51Zm20.11,4.1-1.9,19.51L132,204.42Zm-5.26,50.46-22.7-16.32,0.27-.9,25.27-8.89Zm-26-15.21L111.91,259,97.3,248.6l20.8-11.51ZM144,257.14l-9.53,35.38-18.61-28.75Zm-7.17,37.38,4.41-16.39,5.67,7.48Zm11.78-6.67,4.47,5.9-12.76,1.41Zm-5.14-11.42,14.15-.27-8.6,7.59Zm18.13-4-4-5.11,6.89-3.77a1.41,1.41,0,0,0-.15.27Zm10.73-16.67-0.85-5,7.4-1.73Zm73.24,4.51-26.4,39.13-33.57-49ZM310.67,287l1.88,2.51-4.81,3.18Zm27-1.53,5.32,3.68-16.45,4.45Zm22-5.34,3.59,3.54-12,3.24ZM382,273.69l4.06,4-15.54,4Zm28.78,0.46h35.2L429.14,329l-37.9-49.75Zm27.46,77.36L429,349.7l1.45-12.4Zm0.24,2.9-10.65,5.7,0.89-7.63ZM425,359.23l-12.75-10,13.6,2.68Zm-4.86-.25-9.44-1.86-0.93-6.25Zm3.18,3.48-11,5.87a0.46,0.46,0,0,0,0,0l-1.23-8.22Zm-14.2,3-11.73-8.15,10.83,2.14Zm31.63-9.19,11.06,20.28L415,370.08Zm54,36.32L465.24,403.4l-8.93-22Zm2.77,2-6.44,45L466.43,406Zm-23.35,47.18,10.49,1.79-11.22,2.26Zm-3.68,4.64-5,1,5.68-5.07Zm-9.62,1.41L452.06,438l16.7,2.85Zm9.08,1.55-0.4,2.24-3.73-1.41Zm3-.59,7.58-1.53-8,3.59Zm20.72-7.28,6.74-47,44,35.13L493.62,441.7a1.39,1.39,0,0,0,.07-0.21h0Zm45.74-7.85-9.79,5.92-2.6-3Zm24.67,3.5-12.32-6.46,12.32-2.94v9.4Zm-15.34-8.61V377.82l36.08,42.09Zm39.47-9.11,1.12-8,4,3.91Zm7.13-2.08,6.16,6-10.35-2.7Zm-4.23-8.06,14.25-3.45-9.83,7.78Zm10.58-12,8.38-8.72L608,401.09ZM616.2,368.5a1.43,1.43,0,0,0,.07-0.18,1.47,1.47,0,0,0,0-.22h0l0.76-4.62,18,12.17-21.25,7.55ZM646,351.23l15.85,7.92-21.37,12.46Zm30.1-9.3,9,14.07-17.2,1.56Zm16.9-20.4,18.2,7.28-13.76,10Zm-41.65-6,12-15.76,4.9,12.65ZM660,276.37l2.35-.28,1.65,3.66Zm-2.4-2.53,0.78-6.57,2.77,6.15Zm4.57-5,4.65,3.85L664,273Zm-1.71-5,2.67-.7,3.59,5.88ZM659,261.28l0.42-3.53a1.41,1.41,0,0,0,.25-0.16l1.85,3Zm3.9-3.77,4.4,1.62-2.94.77Zm-9.36,26.09-14.81-27,17.88,1.19Zm-19-27.57v0.23L606,295.78l7.33-55.3,21.25,15.46Zm-31.43-26.09,3-2.47,1.82,5.79Zm-1-2.84,1.17-8.5,1.89,6Zm2.92-12.26L612,219.1l-4.36,3.58Zm1.36-2.45,3.63-2.67,2.4,6.43Zm-2-2L606,198.91l3,8.1Zm4.11-12.72,7.3,4-0.06.41-4.41,3.24ZM607.76,194l3.45-3.24,3.5,7Zm-0.52-3.35,0.84-6.14,1.82,3.64Zm-47.76,14.41,2.89-13.53a1.37,1.37,0,0,0,.21-0.83L561,173.28v-0.09a1.42,1.42,0,0,0,0-.27,1.17,1.17,0,0,0,0-.16l43,7.41Zm-5.87-64.35-1.68,1.8-2-4Zm-58.39,56.95L508,159.9l33,24.64Zm-2.67-.84-26.3-16.59,38.84-20.39ZM464.44,175l-1.86-15.27,6.94-.1ZM471,155.2L462,144l12.66,0.27Zm5-15.08-3.83-5,7-4.62Zm-5.55-7.18-3.88-5,10.2,0.85Zm-7.61-7.87h0l-0.13.06h0a1.33,1.33,0,0,0-.27.31l-0.09.11a1.36,1.36,0,0,0-.08.24,1.28,1.28,0,0,0-.08.28h0a1.57,1.57,0,0,0,0,.19,1.39,1.39,0,0,0,0,.32l0,0.13-4.74,13.62-11-23.33,20.55-4.18Zm-20.18-11.74-19.07-8.8,23-12.84Zm-44-26.17L398.26,69l12.31,10.31Zm-2.79.26-11.49-13,11.14-5.92ZM374.19,77.29L370,71.84l9.5,2.5ZM358.11,87h0a1.33,1.33,0,0,0-.31,1l-5.65,16.09L328.56,93.95a1.38,1.38,0,0,0,.37-0.72l34.14-20.39ZM290,104.88l9-25.59,22.9,14.2ZM261.13,118L240.2,138.93h-0.62L236.67,118h24.46Zm-53.55,33.91L215,121.26l20.85,19Zm-0.72-8.86-1.6,6.56-1.33-3.85Zm-3.46,9.73-6-1,4.24-3.92ZM159.79,141.3v-4.15l5.37-.64Zm-9.35,1.48-4.37.35,5.06-2.84Zm-9.15,4,4.82,4.36-7.07.35Zm-4.28,9,1.63,2.35-4.07,2.78Zm-3.77,16-6.38,5.31,4.24-8.9ZM124,183.19l2,2.13-4.53,3.26Zm-5,11.6,5.12,5.29-6.12-1.2Zm11.65,12.27,15.46,16.87L123.05,232ZM96,246.14l-2.69-26.88,22.3,16Zm0.3,5.17,14,10-12.6.9Zm13,12.88-10.38,7.25L98,265Zm4,0.65,16.82,26L99.83,274.17Zm24.11,33.48L152,296.7l-9.33,8.3Zm3.27,8.57-9.4,8.47,4.07-15.13Zm14.79-14.7-4.8-6.19,9.16-8.09Zm11.27-26.63h0.06L182,250l0.48,0.7,1.4,51.34-20.35-26.4Zm18.62-10.67,32.23,47h0l-30.75,2.85Zm36.81,45.22,26.05-38.71-0.78,28.85a1.37,1.37,0,0,0,.3.87Zm31.16-7.58L274,290.09l-10.8,5.48Zm25.84-1.94-1.6,9.44L267,296.76ZM282,290.7l6.91,3.39-8.15,4Zm2.56-1.86,20-2.37L292,292.55Zm22.3-.35-4,7.51a1.39,1.39,0,0,0-.31.61l-0.48.93-6.93-3.4Zm7.55,11.26h0.25l29.55-8-31,54.93-8-46.08Zm52-14h0l21.16-5.52-17.1,50.31-20.59-40.32ZM389.83,282l37.32,49-54.54,1.67Zm36.38,67.17-14.31-2.82,15.9-10.79Zm-19.4.65,1,6.74-9.92-2Zm-0.74,17-11.28-1.08-0.4-7Zm45,12.53-30.13,16.6-6.69-23.1Zm2.19,2,9.13,22.53-38.56-6.32Zm35.83,60.19-38.92-6.63,14.16-27ZM458.15,449l-13,2.63,4.25-12.39Zm8.56,4.6L458,457.43l3.44-5.92Zm18.09-5.1-15.23,13.75,2-7.77ZM524,437.33l2.51,2.85-18.68,1Zm22.62-4.75L547.3,439l-12.49.68ZM550,438.9l-0.66-6.3,11,5.74Zm16.85-10.56,5.67,3-5.67,5v-8Zm2.46-1.85,12.08-2.88-6.63,5.82Zm15.9-2.49v11l-7.77-4.19Zm2.8,0.17,6.74,6.41L588,434.84V424.17Zm3.5-.53,10.09,2.63L597.2,429Zm6.07-8.06,9.3-7.36-2.33,14.19Zm15.36-27,21.18,15.62-23.43-2Zm1.25-2.56,21.57-7.67,1.58,24.74Zm72.59-27.37,0.11,0.17a1.4,1.4,0,0,0,.3.32l-7.2,16L667.9,360.36Zm-3.36,15.67,6-13.37,2.21,8.67Zm8.94-1.89,1.36,5.33-8.92-1Zm0.28-10.22,5.23,3.84-3.71,2.12ZM692,358.3l5.11-2.18,0.58,6.36Zm0-3,4.23-9.4,0.66,7.31Zm7.09-8.83,3.08,4.48-2.58,1.1Zm4.43,1.5-3.55-5.17,5.63,0.93Zm-3-7.92,10.72-7.77-4.32,8.83Zm12.71-5.45v7.55l-3.42-.57Zm2.8-4.45,3.59,1.4L716,337.63v-7.51Zm1.5-2.42,7.56-5.48-4,6.85Zm9.52-3.29v7l-3.35-1.3Zm-12.56,2L712.11,311l12.82,7.79ZM692.1,318L688,301.52l18.76,7.5Zm-9.34-19v0.06l-11.58,13H671l-5.74-14.82,2.81-3.7a1.07,1.07,0,0,0,.84,0Zm-15-17.52-2.58-5.73,3.36-.4Zm1.69-13.25-3.56-5.82,4.44-1.15Zm-8.25-14.31,1.93-1.59,3.29,3.51Zm-1.91-2.05-1.1-4.87,3,3.24Zm1-6.69,5.39,1.42-2.29,1.89Zm-1.55-3.3,2.53-2.06,3.87,3.75ZM656.58,240l-1.4-6.1,4.06,3.93Zm1.75-6.94,4.67,1.71L661.42,236Zm-6-11.58,7.78,4-6.35,2.25Zm-2,3.67,6.67,29.3V255l-18.35-1.22Zm-39,9.11-2.74-8.69,4.51-3.7Zm3-21.34L612.49,208l2.83-2.08Zm2.47-17.25-3.45-6.89,5.12-4.8Zm-4.75-9.5-2.4-4.8,7.33,0.18Zm-51.48-17.74-1.76-19.3V149l-1.69-8,0.07-.17,35.49,2.84Zm-17.1-16.94-0.2,31.27-32.76-24.49Zm-76.67,25.3,15.42-46.65,22.12,26.94Zm0.49-51.6,8.82-3,2.72,4Zm-0.59-2.75,3.25-9.33,4.54,6.65Zm6.59-9.39,14.11,2.28-10.18,3.49Zm3.48-2.27,14.47-3.34,0.56,5.76Zm-31.49,3.62,4-21.78L466.68,110Zm-21.88-13,4.37-25.88L445.29,89.2Zm-9.06-24.87L413,61.14l10.72,10.72Zm-2.82-.12-12-10,10.6-5.63Zm-20.34-8.78-7.44,4-0.42-3.36ZM383,65.44l-0.52-4.19,9.08,3.55Zm-2,6.39-10.15-2.67,9.73-.73ZM330.52,89l9.18-20.45,20.65,2.64Zm-43.2,15.14L275.88,88.89,296,79.54Zm-24,9.72L249.43,99.12l21.11-8.72Zm-28.2.33L225.48,99.5l19,0.43Zm-2,3.37a1.38,1.38,0,0,0,.75.38l2.65,19-19.9-18.09Zm-23.84,15.65-0.79-2.85,2.44-4Zm-2.79.4,0.91,3.3-4.46,2.44Zm-6.21,10.07,0.43,1.26-2.82,2.61ZM166,133.59l-3.79.45,5.14-2.89Zm-25.31,9.34-6.3-4.43,18-2.15Zm-1.74,2.2-7.12,14.94,0.57-19.54Zm-21.22,44.51-19-14.56,29.39-7.27Zm-2.49,8.71-7-1.35,8.1-2.8Zm-10.81,2.48,4.08,3L104,203.7Zm6.35,5.88-7.56,3.06,0.44-3.26Zm-10.22,1.87-8.2-2.39,8.49,0.24ZM120.11,206l8.29-1.07-8.62,28.31-1.06.37-0.1.06h-0.11l-0.21.11L94.2,216.46ZM93.45,251.25l1.43,11.16-13.88,1Zm1.78,13.94,0.77,6L83.47,266Zm38,30.59L100.74,310l-2-33.22Zm-0.52,3.28L128,316.24l-23.91-4.69Zm9.66,10,4.62,5.78-11.84.72Zm20.14-30.22L183,305.49l-31.43,8.27Zm53,26.07L200,324.22l-12-16.76Zm-11.24,18.55,14.16-17.72,1.28,11.08Zm16.91-18.28L233.24,311l-10.94,4.71Zm16.33,4.45a1.38,1.38,0,0,0-.66-0.1l-10.59-5,14,0.21ZM226,301.7l19.71-6.92-4,7.16Zm22-5.22,1.38,5.56L245,302Zm15.41,2.08,7.27,2.25-14.18,1.26ZM292,295.67l5.63,2.76-13.85,1.23Zm18.72,53.42-47.36-6.89,39.07-40.55Zm36.67-57.47,21.24,41.6-53.3,15.25Zm78,42.21-19.52,13.25-0.16.17-12.43,6.67L374,335.39ZM391.54,358l0.46,7.4-12.09-1.16ZM377,367.85l12.08,8.32-12-1.26Zm34.09,4.33h0l6.34,21.89-20-14.6Zm50.67,34.36-13.56,25.9L424,400.35ZM446,440.23l-3.74,10.9-5.53-4Zm-11.63,5.11-18.48-13.53,29.89,5.1ZM458,451.77l-4,6.79L446.74,454Zm10.23,4.08-2.16,8.46L458,460.53Zm23.9-10.36,19.55,25.83-41.51-6Zm2.9-.81,32-1.74L514.6,470.48Zm69.21-3.77L568,468l-34.58-25.4Zm10.9-8.11,8,4.29-13.68.74Zm21.65-.23,4.08,3.87-10.77.34Zm46.58,5.34-31,29.17-7-28h0Zm-18.1-2.23-2.32-3.8,13.27,3.46Zm-20.46-1.51,1.44-6.66,9.29,2.42ZM610.24,405l24.19,2-27.15,16Zm28.32-26.68,20,6.06-18.47,18.43Zm27.51-15.76,11.75,14.36-14.39,4.55Zm18.32,17,9.32,1-3.41,3.12Zm11.89-3-1.4-5.51,3.35-1.92Zm4.1-15.64L699.85,355l2.35-1Zm8.08-16.68,2.66,0.44-4.55,3.43Zm21.33-23.74,2.11,1.17L729.79,326v-5.5h0ZM731,318l4.21-3-2.07,4.24Zm6-.29,1.22,4.29-2.61-1.45Zm-1.55-15.27v8.89l-8,5.82-12.19-7.4ZM708,283.5l1.42,23.59-19.83-7.93Zm-37,7.76,10.9-14.39,2.13,19.6Zm-1.25-3L673,262.42l8,10.89Zm-4.43-37.76,2.54-2.11,1.63,6.57ZM663.45,238l1.51-1.23,0.88,3.55Zm-6.59-8.47,5.79-2.05,1.14,4.59Zm5.78-6L655,219.72l8.9-2.6Zm2.26-11.09-6-5.22,7.22-1Zm-7.12-7.89,1.41-4.13,4.9,3.25Zm9.69-2-4.71-3.13,6.73-.34Zm-13.08,3.24h0l-4.57,13.42a1.37,1.37,0,0,0-.36.5l-12.93,31.67-5.67-27.73a1.38,1.38,0,0,0,.48-0.62l24.4-21.21Zm-40.46,29.52,4.6-32.17a1.37,1.37,0,0,0,.07-0.51l2-14.25,7.55,34Zm-4.06-56.82,2.4-5.21,5.15,5.39Zm-2.13-2.07L604,164.62l6.25,6.55Zm-2.65-14.71,8.25,2.57-1.89,4.1Zm-2.24-3.63,2.22-3.64,5.51,6Zm-1.77-2.47-2.74-8.56,4.76,5.23Zm-1.86-11.75,8.14,1.45-2.73,4.49Zm-52.84-12.4,0.08-13.13,3.79,5.93Zm-37.5,24.21,10.8-29.55L541.58,149Zm8.44-31.24-11.13,30.44-21.9-26.67Zm-38.48-3.28,10.34-3.55-7.64,7.5Zm15.67-8.78L494,106.79l8.23-1.9ZM493.7,104l-0.26-2.65,6.39,1.23Zm-2.75.63-12.85,3,12.51-6.46ZM467.57,107l-17.2-17.2,16.51-6.1ZM414.29,58.52l11.35-6-1,16.42Zm-7.61.87-7.83,4.16-0.2-4.16h8ZM396,63.56l-10.68-4.17H395.8Zm-16.43-2.42,0.56,4.52-8,.6ZM326.76,90.57L322.51,73.1l13.84-3.89ZM300.43,75.1l15.12-22.67,4.17,18.08ZM248.78,96.36L246.4,74l23.41,13.65Zm-25.39,5,8.8,13.43-15,1.18ZM212.1,119.14l-6.22,10.08a1.37,1.37,0,0,0-.23.37l-12.08,19.58-3-30H212.1v0Zm-42.09,13,1.92-3.46v-0.15l5.57-3.13Zm-11.46.74-2-20.77,11.31,15.52Zm-26.06,3-2.62-18.64,23.85,16.11Zm-2.87,4.91L129,163l-20.53-14.19Zm-2.47,24.36L97.56,172.5l8.6-21.83Zm-11.61,26.28-10.68,3.7L99.3,179Zm-14.29,12.18-11.43-.32,12-4.16ZM95.43,210l-7.09.39-2.58-3.2Zm0.41,2.78-4.2,1.7-1.14-1.41Zm-8,1.4-4.33-.72,3.59-.2Zm-1,2.68-6.75,3.71-1.32-5.06ZM88,219.44L82.55,230l-1.73-6.64Zm-8,11.9-7.3-3.51,5.59-3.07Zm-4.57.91-4.33.25-0.21-2.43Zm2.52,2.66-6.16,3.92h-0.1l-0.31-3.49Zm-9.19,2.92-6.26-2,6-.35Zm22,12.17L78.42,262,71.9,242.89Zm1.92,22.87-12.43,1.78-1.12-7.39Zm0.14,2.81L81.6,283.52l-0.93-6.1Zm-14.08,7.7L68,279.22l9.89-1.41ZM96,276.9l2,32.94L68,296.38ZM64.56,298.61l0.6,7.36L61,300.86Zm-5.31.06-4.1-5.06,8,2.62Zm9.15,12.55a1.65,1.65,0,0,0,0-.5,1.46,1.46,0,0,0-.05-0.26,1.55,1.55,0,0,0-.06-0.2l-0.91-11.1L96,312,69.4,323.61Zm65.6,7.24,13.13-.8-3.51,6.89Zm15.34,1,11.91,16.22L146,326Zm1.53-2.65,30-7.9L164.71,335.7Zm47.31,9.66L179.41,350l6.8-40.28Zm1.51,2.6,3.82,6.4L183.2,349.74Zm2.87-.65,14.37-2.36-11.13,7.8ZM223,321.66l-0.35-3.07L235.52,313Zm20.33-16.88,4.13,0.06-6.73,4.63ZM299,301.11L260.62,341,253,305.2Zm67.75,35.54-42,52.47-10.6-37.41Zm4-.48,19.87,19.13-50.33,27a1.38,1.38,0,0,0-1.55.52,1.41,1.41,0,0,0-.17.4l-9.68,5.19ZM357,387l0.19,7-11.44-8Zm3.24,9.32A1.37,1.37,0,0,0,360,396l-0.24-8.8,14.92,1.3h0Zm17-9.24a1.36,1.36,0,0,0,0-.27,1.2,1.2,0,0,0,0-.14l-0.13-8.9,14.84,1.5-14.77,7.91a1.43,1.43,0,0,0,0-.18v0.08ZM394.75,381l23,16.81L382.68,408.2l11.76-27ZM446,434.11l-33.91-5.78,8.76-27.54Zm-14,13-11.85,8.75-7.25-22.73Zm2.37,1.73,5.21,3.82-14.27,2.87Zm17.23,11.5-9.92,4.48,2.2-9.22Zm12.94,6.35-16,14.41,6.86-18.66Zm5.77,5,28.15,23.19L484.76,515Zm12.08,45h-17l2.61-43.1Zm-11.83-48.45,41.91,6L500,492.48Zm44,8,15.8,41.26-28.13-23.17Zm15.37-32.69,35.89,26.33-48.71,1.88Zm37.17-2.74,17.16-.93-13.6,26.64Zm35.64-1.57a1.38,1.38,0,0,0,0,.59l6.12,24.5-21-24.63ZM645.4,440l8.23,26-38.19,2.17ZM609,425.31l29-17.1,5.11,26Zm51.81-39.12,13.44,25.32-32.43-6.37Zm18.77-6.86,4.27,10.59-18.18-6.2Zm8.73,10,2.28-2.09,5.8,4.09Zm4.39-4,3.76-3.45,3.64,8.66Zm8.66-17,9.47,5.63-11.92,3.69Zm0.74-2.82,3-11.54,7.16,17.59ZM734.35,323l3.5,2L731,329.86Zm6.91-.5-2.07-7.27,6.35,4.19Zm-1.65-10.34,2.31-1.14,1.8,3.85Zm-1.4-2.43V303l2.53,5.41Zm-26-2-1.54-25.6L733,300.26ZM687,297.7L684.61,276l22.27,4.74ZM683.59,272h0a1.32,1.32,0,0,0-.09-0.18l-9.75-13.19a1.34,1.34,0,0,0-.54-0.42l-0.2-.83,23.5-1Zm13.7-18.58-0.09.13-23.8,1,6.6-18.87,17.27,17.75h0ZM677.66,234l-6.16,17.52-6.1-24.59Zm-8.4-28.89,3.06-5.24,13.12,7L666,221.12Zm8.19-19.57-4,6.92v-3.83Zm-6.84,10.76-7.74.39,7.74-5.91v5.53h0Zm-37.86,21.87L642,185.11l14.79,12.18ZM630,217.6l-7.94-35.74,17.39,1.93Zm-16.46-47,1.67-3.62,2.39,7.88ZM606.59,152l2.65-4.35,1.68,5.23,1.77,5.82Zm-9.33-11.28,1.57-4,6.38,5.4Zm-1.88-2.87-1.77-5.53,3,2.5Zm-1-8.5,5.58-3.26-2.35,6Zm-4-3-6.79-9.85,7.78-.32Zm-10-14.49-5.81-8.43,6.12,1.31Zm-33.55,2a1.39,1.39,0,0,0-.38-0.4l0.06-8.76,2.73,12.91Zm-3.4,33.1L520.84,123.4l0.06-.37,22.83-23.14Zm-58.11-21.63,21-20.61,9.77,17.09Zm-15-16.92-0.73-24.9,19,15.49ZM449.85,87l-2.36-20.88L465.91,81ZM427.42,69.88l1.06-18L443,62.9ZM412.63,56.22l-0.84-6.12,11.29,0.56Zm-3-1-8.12-5.6,7.4,0.37Zm-14.38-4.87h0.12l0.3,6.28h-9.5ZM377.85,59l-12.23,8.43-10-13.07ZM349.8,53.2L339.47,64.32l-3.6-11.52ZM337.09,66.09l-14.57,4.1-4.13-17.88,14.52,0.42ZM245.78,94.65L234.69,77.28l8.85-3.68Zm-31.53,21.13L203.39,98.13l17.42,2.18Zm-14-17.34,11,17.9H190.89Zm-28,26.72,4.94-21.49,8.93,13.7Zm-2.85-.09-11.84-16.24,16.7-4.93Zm-39.75,11.31-10-7.79,7.2-11.9Zm-29.34,12.49-4.71,2.2,1.07-2.2h3.64ZM84.76,156l0.69-.13-0.79.37Zm18.38-5.31L95.4,170.33l-10.74-11Zm-7.95,25.2,0.08,0.06,6.66,19.39-23.5-10.18Zm3.91,21.27-15.27,5.28-5.6-14.31Zm-17,10,2.8,3.47-4.83.27ZM77.56,222l-5.06,2.79,3.92-7.2ZM68.3,232.7l-5.18.3,4.95-2.89Zm-10.55,4.53,7.54,2.46L57.68,241Zm8.59,5.11-8.79,5.6,0.07-4Zm-11.59,5.57-9.61-1.8,9.68-1.72Zm14.49-4.11,6.66,19.54-26.55-6.87Zm8.2,31.2-9.8,1.4,8.72-8.51Zm-1.68,10.2-9.53,2.19-1-6.28Zm-1.16,3.14-7.36,5.14-0.55-3.33Zm-10.16,5.35L59,292l5-1.13Zm-7.57,6.46-3.6,2.29-0.8-7.71Zm1.78,2.19,4.29,5.29-7.69-3.13Zm36.23,13.22-11.65,14.7-13-3.93Zm4.17-.75,8.88,22.91L86.11,331.1ZM129.22,320l6.65,16.74-22.45,1.32Zm11.2,17,4.31-8.46L161,338.86Zm64.53,0.89,5.5,9.22L184.77,352Zm18.34-12.45h0a1.34,1.34,0,0,0,0-.27,1.38,1.38,0,0,0,0-.28v-0.07l27-18.57L258,342l-41.6,4.11Zm38.1,25.64,4,13.36-1.21,2-2.89-5.33a1.35,1.35,0,0,0-.33-0.4ZM266.51,368l1.76,5.83-2.51-4.63Zm2.4,12.88-7.69-4.36,2.84-4.58Zm58.45,11.48,11.39-6.11-0.14,7Zm11.2,3.68-0.19,9.49-10.78-10.34Zm3-9.62,11.44,8-11.58-.9Zm49-3.23L380,407.52l-17.45-9.31ZM418,400.63l-8.53,26.82L383.18,411Zm-8.13,32,7.38,23.17L399,449.06Zm31.27,22.54-2.41,10.09L424,458.64Zm11,8-6.73,18.31-4-13.45Zm11.32,8.27L452,499.37l-5.09-13.08Zm1.7,3.23-2.41,39.7-9.16-11.44Zm16.9,44.81-10.44,20.45-5.83-20.45h16.27Zm18.59-22.85,28.6,23.55-42.38-3.31ZM518,477.4l29.3,22.86L533.93,519Zm0.77-3,48.3-1.86L548.94,498Zm49.92,0.69,2.15,39.93-19.7-15.37ZM586.27,442l22.45,26.39L572.2,469.6Zm65.63,26.81-15.69,15.61-20.29-13.56Zm4.28-4.09-8.29-26.24,27.42,9.1Zm20.26-14.4-5,19.08-13-3ZM640.7,407.78l32.76,6.44L646,434.73Zm23.17-21.69,21.31,7.26,4,10-11.91,8Zm28.45,15.34a1.38,1.38,0,0,0-.46.19l-0.11.07-0.24-.14-3.08-7.62,5.83,6Zm3.91,0.46,5.14,5.24-6.86-3.87Zm-4.74-8.83,8.63,2.14-3.67,2.93Zm7.4-12.45,13.32-4.12-8.69,15.13Zm8.51-28.27L726.6,357l-11.34,14.68ZM730,334.8l14.35,6.2-14,11.54Zm14.9,3.38-13-5.59,14.16-10.18Zm1.67-23.77-2.18-4.67,2.18-1.08v5.75Zm-3.36-7.2-2.3-4.93,4.53,3.83ZM686,273.47l12.84-15.59,7.82,20Zm-4.11-39.88,20.43-6.5-4,23.35Zm-15.48-9.31L684.58,211l-6.64,19.93Zm7.31-26.83,7.92-13.56L685.92,204Zm-12.64-2.93,7.67-29.31,11.53,14.63Zm-3,.26-14.44-11.9,22-16.91ZM639.86,181l-17.23-1.91L643,152.32ZM621,176.57l-7.45-24.51h0l-1.75-5.43,30.42,2.08ZM599.91,134l2.71-6.89,4.06,12.63Zm-6.73-7.15,1-10.51,6.6,6.07Zm-10-13.16,0.31-7.19,0.59,0.5,6.92,6.37ZM572.3,100l-4.88-7,9.58,8Zm-21.6,10.72L548,97.92l12.19-4.76Zm-29,7.51,5-31.48,16.76,9.43Zm2-30.57-5.19,32.64-10.09-17.66ZM508.06,99.14l2.2-6.86,5.43-.63ZM494.35,96L498,66.31l9.07,23.17Zm-3,1.55h0L471.46,81.34l24-17.53Zm-25-42.87,1.16,24L448.64,63.41Zm-55-7.43L410.67,42,421,47.77Zm-3.6-5.59,0.75,5.45-8.07-.4ZM392.14,49l-8.93,6.16,2.92-9Zm-11.87,6.15-8.74-15.74,12,5.6Zm-4.31-2L361.39,43.9l6.31-5.6Zm-2,2-19.12-4a1.38,1.38,0,0,0-.44-1h-0.07l4.88-4.33Zm-22.33-6.39-3.4-10,8.54,5.43Zm-3.63-2-5.41-3.76,2.77-4Zm0.19,3.54-10.47-.3,3.27-4.7ZM335.4,48.53l-3.31-9.37,6.63,4.6Zm-3.58-1.74-6.74-4.56,3.62-4.28Zm-0.43,3.09-12.48-.36,4.35-5.15Zm-14.12-2.76L315,38.74l6,4ZM311.54,36.9l2.51,9.1-6.9-5ZM314,49.38L298.78,49l6.33-6Zm-16.9-2.69,0.2-9.32,5.5,4Zm-2.82,1-5.9-2.08,6.11-7.7Zm-1.51,2.43-11.9,4.94L286.5,48Zm-13.38,2.3,0.89-6.71L283.71,47ZM276,56.77L269.93,55l7.28-7.42Zm-3.71,1.85-9.89,4.1,5.31-5.41ZM234.67,74.26l1.3-3L240,72Zm-2.59-1.07L231,75.8l-10.84,4.5ZM212.25,86.86l7.56,10.5-17.08-2.14Zm-24,28.51-8.64-13.24,18-4.58ZM176.17,99l-0.25.1-5.31-3.42,9.53-9.11Zm-2.28,2.12-13,3.84,7.62-7.29Zm-17,3.77,4.5-11.78,4.68,3Zm-3,0-3.05-3.19,7.25-7.7Zm-1.74,2.23-7.9,1.6,4.67-5Zm-10.46.24,2.86-8.17,2.43,2.53Zm-3.52,1.57-2.31-2.27,5.06-5.58Zm-2.45,1.52-4.06.82,2.31-2.54Zm-13.07,7.86,1.07-4.09,1.22,0.3Zm-2.7-.75-2.31-4.85,3.37,0.84ZM119,122h-3.21l0.54-5.6Zm-0.27,2.8-3.83,6.33,0.61-6.33h3.22Zm-6.55,5.42-2.08-5.42h2.6Zm-1,5.16-3,.12,0.48-6.68Zm-0.54,2.82-3,5,0.35-4.86Zm-5.74,3.93-2.34-3.61,2.61-.1Zm-11.28,6.71-1.37,2.81H92.17l-6.05,1.18,1.74-4h5.76Zm0.64,24.31-17,9.38L82.6,161.2Zm-13.69,28.6L68.94,199l6.54-10.23Zm-0.31,2.8-3.18,5.84-8.24-8.58ZM69,225.4l-9.47-5.52,14.95-4.55Zm-2,2.07L57.44,233l-0.32-11.3Zm-12.09,14-9.14,1.63L55,237.71Zm-5.13,8.28-6.06,2.16L40.54,248Zm0.41,2.82-3.9,2.48-0.69-.85ZM43.36,256l-5.26.93,4.66-1.66Zm31.15,9.85-9.72,9.49-15-15.89Zm-11,22.22-9.6,2.2-0.3-.1,8.81-8.61Zm0.6,23.11-4,2.7-4.68-6.25Zm1.67,2.25,0.74,9-4.75-6.33Zm-2.55,9.3-6.69-3.09,2.91-2Zm-3.67,1.39,6.69,3.09-2.82,1.94Zm21.52,8.43-4.52,3.19-4.43-5.9Zm2,2,3.61,2.65-6.88-.34Zm8.16,2.88a1.35,1.35,0,0,0-.48-0.72l-3-2.16,10.71,3.25Zm45.77,2,6.9,17.57-27.68-16.25Zm3.67,1.66,15,6.69-8.94,8.56Zm4.95-.86L162,341.7l-4.16,4Zm20.25,1.65,8,11L160.58,347ZM256,345l-40.28,33V349Zm4.75,20.89,1.75,3.22-2,3.26Zm-1.15,27.47,0.48-11.59,5,7.27Zm3-12.8,7.64,4.33-3,2.41Zm9.15,6.71,1.76,9.27-4.72-6.92Zm2.92,0.4,7.35,6.86-5,4.8Zm2.68-1.33,11.26,2.11-4.52,4.17Zm13.44,3.9,2,10.46-6.61-6.17Zm5.39,13.56L294,392.14l6.29,7Zm-0.55-14,11.14,2.09-4.62,5.2Zm12.93,4.28L310.2,406l-6.08-6.8Zm3,1.46,4.56,7-3,5Zm1.77-2.42,7.57,1.42-3.18,5.32Zm9.28,4,1.9,13.13-5.08-7.8Zm2.82,0L337.3,408.5l-9.49,5.08Zm15.83-.83,15.49,1.21a1.37,1.37,0,0,0,.08.54l-15.77,8.45Zm18.15,3.54L378.57,410l-27.24,9.68L359.21,400ZM406,428.64l-47.37,6.82,22.08-22.7Zm-5.79,3.66-20.49,11-18.1-5.4Zm6.73-.42-10.78,16.27-12.63-3.77Zm7.31,25.85L390,462.63l7.38-11.14Zm3.49,2.15L417,465.41l-24.4-.48Zm2.78,0.3,12.28,5.54-12.94-.25Zm12.87,8.35-14.74,6.66,0.87-6.93Zm1.87,2.23-6.25,8.4-7.17-2.33Zm3.81-.43,4,13.41-11.29-3.67Zm-0.14,15L426.73,487l3.37-4.53Zm3.11,2.41-4.89,6.37-8.92-4.52Zm2.77,1,4.49,11.53-9.61-4.86Zm1.25,13h-11.2l3.15-4.1Zm4,2.8-1.44,4.84-10.34-4.84h11.78Zm2.46,1.56,6.52,8.15-7.85-3.67Zm7.92,11.9-13,5.37,3-10Zm1.67,2.34-2.2,12.88-10.11-7.8Zm2.15,4L468.72,540l-6.3-4.86Zm4.17,19-0.17.07h0l-7.74,3.07,1.4-8.2Zm15.34-21.07,10.37,22.85-21.28-1.5Zm2.69-.85,21,15.74-10.74,7Zm2.58-1.56L529.33,523,510,535.51ZM549.52,502l19.28,15-32.31,3.2Zm22-26.46,16.34,21.31-14.25,17.54Zm1.13-3.13,36-1.15-19,23.35Zm37,2.11-5.29,39.2-12.9-16.82Zm2.89-.51L625,495.58l-17.8,17.74Zm3.4,0.28,18.28,12.21-7.1,7.06Zm20.65,13.8,7.24,4.84-7.36,16.75L628.54,496Zm2-2,14.6-14.53-8.25,18.78Zm16.83-12.63,6.12,28-14.23-9.51Zm2.62-1.09,9.68,11.18-4,15Zm1.31-2.76,11.36,2.59-2.12,8.07Zm14.08,3.21L678.6,474l0.34,18.23-8.14-9.39Zm0.71-2.71,4.09-15.55,0.31,16.55Zm-22.8-33.35,30.85-5.89L678,445.57Zm27.41-22.89L689,407l-4.41,15.54Zm14.72-7.4-0.19-.65h0l13,7.34H696.17Zm5-6.3,4.21-3.37,5.63,13.39Zm16.38-22.55,7.63,18.59-16.92-2.42ZM717.2,376l15.1,1-7.39,17.81Zm0.37-2.78,11-14.2L733,374.2ZM747,342.45l6.47,13.26-20.6-1.59Zm-6-43.82,0.87-.58,1.4,2.5Zm-2.22-1.88-0.52-.44V291.6l2.24,4Zm2-6.31,4.38,2L742.79,294ZM710,278.57h0l-8.54-21.82L730,266ZM701,251l4.11-23.73,17.58,10.45Zm-20.17-20,7.2-21.6,14,14.86Zm3-50.13,16.74,3.83-12.26,17.25ZM682,177.49l-11.35-14.41L687.5,161ZM642.78,180l3.31-30.23,20,12.31Zm-31.86-36.3-6.43-20,35,21.93Zm-25-38.83h0l-0.56-.48,14.45-7.44,1.79,22.33ZM583,102.41a1.39,1.39,0,0,0-.29-0.19L569.93,91.41,597.48,95ZM527.49,84l4.3-4.22V79.72A1.31,1.31,0,0,0,532,79.5a1.45,1.45,0,0,0,.12-0.22V79.22a1.38,1.38,0,0,0,1.08-.57l3.17-4.44,7,18.78ZM519,88.46L514,89l9.16-4.73Zm-7.31-1.35,4.88-18.64,3,14.53ZM509,86.52l-9.26-23.68,15,1.91ZM470.32,78.7L469.2,55.6l24.89,5.74ZM447,61.12l-1.9-19,0.4-.21,18,11Zm-6-20-12.23,6.5L427.54,41Zm-14-3L425.87,32l11.37,6.22Zm-1.17,9-11.49-6.4L424.69,41Zm-29.67-.93-5.94-5.93L405.16,40ZM384.5,42.4l-8.28-3.85,8.91,1.94ZM359,42.4l-8.31-5.29,13.71,0.49Zm-18.67-.92-7.18-5,10.39,0.37Zm-17.57-.82-7.07-4.79,10.79,0.38Zm-17.91-1.27-5.7-4.1,9.7,0.34Zm-19.29,5.29-3.42-1.21,8.28-4.92Zm-18.72,9.55-1.89-.54,5.8-3.45ZM257.4,63.9L250.94,62l8.68-5.16ZM244.24,70l-5.11-1,6.31-3.75ZM213,81.26l-4.48-5.66,18.09-2.43Zm-7.39-4.83,5.85,7.38-11,9.68L187.88,82.66Zm-8.08,18.25L179,99.4l4.78-15a1.36,1.36,0,0,0,.52-0.56,1.4,1.4,0,0,0,.37-0.06l0.17-.06Zm-29.36-.56-5.35-3.44,14-4.84Zm-19.25,5.56-2.47-2.58,7.85-3.15Zm-15,5-1.63-1.61,5.73-2.91Zm-7.7,7.32-1.74-.43,1.35-5.16,2.45-1.24Zm-4.46-1.11-3.2-.79,3.93-2ZM113,122h-2.32l2.77-4.69Zm-7.62,13.61-2.8.11,3.18-5.38ZM73.56,161.4l-3.8,1.78,4-3.71-0.22,1.63A1.36,1.36,0,0,0,73.56,161.4Zm6,0.27L74.75,181.2l-9.22-13Zm-13,35.79-4.91-11.73,11.63,1.22ZM75,212.24l-16.7,5.08,8.58-13.55ZM54.65,233.31L45.9,231l8.44-8.77Zm-1.8,2.42-12.2,7.14,3.59-9.4Zm-15.3,13.14,3.33,4.07-6.25,2.23Zm6.1,9.9-6,14.16L33,260.65Zm-4.8,18.44h0l7.4-17.4,16.07,17L37,281.58Zm21,2.9-9.47,9.24a1.36,1.36,0,0,0-.4.16l-12.52-5.18Zm-2.12,35.31-2.94,2-0.71-6.83Zm5.07,17.5,2.48,3.21-6.67-.33Zm5.67,3.37a1.38,1.38,0,0,0-.27-1l-3.08-4,3.06-2.1,5.49,7.32Zm40.07,4.81-5.82,17L80.65,339.71Zm2.94,0.06,31.16,18.3h-37.4Zm46.9,7.89L171,354.69l-23.14,4.44Zm35.91,15.71-10.84,11.78L179.67,357ZM213,351v25.5l-14.28-12.16Zm45.84-4.63-2,48.59-39.26-14.81Zm7.87,45,5.61,8.23-12-3.19Zm17.5,5.08,9.47,8.82-14.77-3.93Zm18.09,4.83,7.39,8.26-11.9-3.17ZM318,405.13l5.21,8-8.61-2.29ZM355.41,402l-7,17.5a1.37,1.37,0,0,0-.88,0,1.34,1.34,0,0,0-.3.2L330,415.63Zm20.26,12-20.26,20.83-5-11.84Zm0.64,31.1-6.11,3.27-9.08-7.8Zm3.81,1.14,14.52,4.33-7.93,12-14.23-12.22Zm36.68,21.94-0.91,7.27L398,467.84Zm10.54,13.32-3.53,4.74L419.5,479Zm8.17,14.83-3.29,4.28-5-8.45Zm12.39,15.74-3,10.17-9.34-16Zm11.52,24.23L458,544.67l-10.07-17.21Zm9.55,9.8,2.17,0.15,11.33,19.65-21-16.83Zm5.54,0.39,18.87,1.32L485.79,566Zm35.43-7.6,10.75,8-20.88-1.47Zm24.29-14.31,9.47,10-15.21,8.66Zm2.35-1.59,33.2-3.29L546.2,533.13Zm33.24-.1L563,550.84l-14.81-15.59Zm19.83-23.82,12.87,16.78-27.07.7Zm36.87-1,7.87,13.56-25.11,3.59Zm19.67-3.6L660.41,504l-21.3,6.5ZM670,486.06l8.2,9.47-12.35,6.29Zm11.47-11.47,3.8,0.87-3.59,10.48Zm0-2.88L681,453.47l8,10.88-2.9,8.45Zm-0.21-22.79,6.67,1,1,9.49ZM680.79,446l4.48-15.8,0.41-.08L687.51,447Zm8-13.14,13.78,16.31-12.21-1.78Zm1.27-2.84,7.48,0.38,3.75,12.92Zm-2.38-2.92-1.08-1.61L691.3,409l5.41,18.62Zm9.33-8.56,8.52,9.46-5.86-.3Zm11.3,8.37-9.94-11H710Zm-2.69-30.36,15.7,2.24-9.1,13.48Zm29.24-18.45,6.59,12.9-0.07.19L727.45,396ZM743.29,394l1.06,7.21-4.34,1.3Zm3,0.93,3.48,4.66-2.68.8Zm-3.46-7.46-5.54-10.83H747ZM748,373.91H735.83l-0.18-.35-4.85-16.79,23.2,1.79ZM755.71,354l-6-12.33,12.12-3.51Zm-7.36-14.85a1.35,1.35,0,0,0-.66-0.32l1.23-16,12.24,12.56Zm-4.19-42.67,2.44-1.63v6Zm2.44-6.53V290l-8-3.7,2-2.19,6,5.43a1.33,1.33,0,0,0,0,.42v-0.05ZM737,284l-0.78-3.76,2.33,2.1Zm1.81-5.2,2.66,0.41-1,1.08Zm-2.06-3.15,1.47-2.31,2.54,2.93Zm-1.93-2.19-1.1-5.31,2.58,3Zm2.31-5.65,1,0.38-0.3.47ZM732.26,261l-1.88-9,4.62,2.9Zm-10.77-38.2,2.59,12.5-16.18-9.62Zm-31.42-15.38,23.7-2-9.71,16.89Zm22.57-4.69-22.78,1.9,13.37-18.81Zm-44.91-42.87-19.37-11.94L677,139.5Zm-61-38L633,102.06l9.84,42.41Zm-2.31-1.76-1.88-23.45,27.57,4.07ZM569.55,88.54L581,70.08l15.83,22Zm-3.2-.15-4.59-3.87-0.46-.45-0.3-.43a1.37,1.37,0,0,0-.65-0.49l-5.72-5.52,23.53-8.2ZM546,91.87L539.32,74l10.51,4.43ZM534.51,72l-3.57,5a1.4,1.4,0,0,0-.18.4h-0.24a1.36,1.36,0,0,0-.29.08h-0.07l-8,4.12L518.8,65.74ZM448.33,40.43l14-7.42L466,51.21Zm-2.77-1.7h-0.09l-1.31-7.32,14.39,0.45ZM442.48,38l-12.89-7,11.69,0.37Zm-53.81-.37L389.31,23l16.32,14.36ZM386.5,23.28l-0.63,14.5-13.64-3ZM348.13,34.2l13.35-16.09,5,16.74ZM280.6,41.1l0.33-12.89,12.32,5.37Zm-18,10.68L260,35l16.16,8.76Zm-14.7,8.75-6-18.13,16.83,11.72Zm-13.32,7.91a1.33,1.33,0,0,0-.25.15l-1,.58L227.14,49.4l17.41,13.13Zm-27.3,4.5L208.2,54.5l20.05,15.63Zm-21.86,7.61-0.1-.08,5.6-18.87,12.6,12.6ZM146.34,94.13l5.74-16.64,5.68,12.06Zm-14.84,6.21-2.64-11.7,12,6.94Zm-14.24,7.23L113,97.5l14.24,5Zm-9.15,13.3L95.74,110.13l17.85,1.49Zm-8.68,14.67-12.32-7.39,18.61-3.24Zm-13,9.38-9.05-3.26,15.11-.91Zm-2.63,2-2.72,1.91L81,148.9l-0.08.05-4,3.69-0.14-8.23ZM63.93,170.75l9.52,13.4-12.58-1.32Zm0.61,29-13.77.68,8.51-13.25Zm-0.27,2.82L55.45,216.5l-5.57-13.22ZM37.58,243l-6.5-8.25,10.14-1.27Zm-7,14.25-9.09-8.4,13.79-1.7Zm5,18H25.29l5.63-12.11ZM48.45,291.9L35.53,314.18V286.56Zm1.27,3.4,3.87,37.4-17.42-14Zm24.21,44.08L63.19,357.72l-6.55-19.21Zm2.81,0.73L100,359.47H65.41Zm65.63,22.16-18.46,15.39-16.16-15.39h34.62Zm34.34-5.82,4,20.52L150.5,361.48Zm20,9.87,13.86,11.81H185.82Zm18.79,16.07,38.9,14.68L212,416.77Zm44.93,17,32,8.52-26.51,22.73ZM263.15,431L243,436.2,257.85,401ZM312,413.09h0.07l10.63,2.83-25.7,27V409.1Zm34,9.28-19.07,17.88v-22.5Zm2,1.94,5,12.09-22.9,4.66Zm7.61,15.43h0.18l11.78,10.11-3.67,2-0.11.09a0.17,0.17,0,0,0-.12.07l-24.48,20.22Zm30.25,26.66,1.69,11.1H340.7Zm2.92,0.55,1.49,0.64h0l23.23,9.92H390.33Zm23.34,13.35-18.69,17.13-2.61-17.13h21.3Zm2.78,1.25-5.44,29.38L394.58,500.1Zm2.86-.1,4.7,8h0l8.39,14.33h0l23.27,39.75L411.9,512.76Zm37.51,66.43-51.48,9,7.61-41.1Zm28.36,22.55-11.07,7.19-10.35-24.36Zm4.51-2.66L495.9,549l5.24,11.54Zm14.23-4.7,13.42,29.56-27.27-21.86Zm-3.67-14.84,21.86,1.54-16.9,9.39Zm28.6-1.08,18.4-10.47L560,551.77l-32.85-4.25Zm46-26.56,13.31,11.18-20.42,17.91Zm2.9-1.22,25.28-.65L588.67,529.9Zm27.43,1.19-1.79,20.35-10.94-9.19Zm2.9-1L619.32,527,604.65,540.3Zm3-1.5,23.31-3.33L621.49,525Zm25.73-1.75v16.6L624,526.43ZM638,515l11.1,5.35L638,531.83V515Zm2.43-1.94,21.8-6.66v0.31l-11.09,11.5Zm21.8-2.31v12.81l-8.43-4.06ZM665,507l5.66,3.37L665,520.41V507Zm1.5-2.37,10.35-5.27-4.81,8.57ZM679,501.32V512l-4.49-2.67Zm9-25.23,9.56,2.18-15.07,13.88Zm0.91-2.66L691,467.1l6,8.2Zm3-12-1.2-11.16L702.49,452Zm13.37-14.52L700.5,430.6l7.19,0.36ZM712.51,418l8.91,17.51-10.56-6.67Zm11.06-17.49,6.07,15.35L714.8,413.5Zm8.7,14.37-6.14-15.5,13.94-4.75Zm12.5-10.83,1.17,8-5.24-6.76Zm2.71-.81,2.91-.87-2,6.87Zm-0.77-12.33,2.76-1.31,0.47,5.64Zm-1.24-2.51,3.21-8.33,0.55,6.54Zm6.11-7.24,2.45,3.17-2.1,1Zm4.18-19.46,1.2,6.16-5.28,4.44Zm2-4.22h0a1.35,1.35,0,0,0-.14-0.68l2.94-7.62-2.07,12.12Zm-15.23-75.36,1.34-1.43,1.21,3.72Zm-2.76-11.29,0.6-.94,0.85,2.61Zm-5.66-7.15,2.47-5.45,2.35,7.23Zm-3.79-15.05a1.36,1.36,0,0,0-.68-0.19L727.5,238a1.36,1.36,0,0,0,.34-0.79l5.88,13.54ZM727,235.86l-0.18-.85,0.42,1a1.34,1.34,0,0,0-.22-0.16h0ZM706.89,223l8.52-14.81,5.39,11.86Zm0.35-35.78-3.38-6.08,0.36-2.63,3.06,8.56,0,0.19v0Zm-5.65-10.15-2.46-4.43L702,174Zm-8.52-15.32,4.36,0.17-1.71,4.59Zm-0.38-9.95,0.87,0.12-1.2,2.36Zm-3.28,3.38L687.1,151l2.81,0.39Zm-1.5-6.87,2.9-3.63-0.53,4Zm-0.86-3.4,0.38-3.05,2.12-.07Zm-2.92.77-2-3.64,2.49-.08Zm-1.45-6.46,2.78-4.14-0.46,4.1ZM556.18,74.13l10.54-12,10.55,4.7Zm-3.49-.27-0.92-18.43L564,60.89ZM550,75.49l-11.44-4.82L549,55.21ZM520.06,63.22L531.24,49l3.46,20.08Zm-2.22-1.71-4.56-17.2,16,2.66Zm-19.56-3.45-5-16.82L509.1,44.1Zm-28.86-7.57a1.38,1.38,0,0,0-.77,0L465.27,33.6l21.81,6.1ZM443.64,28.56l-1.28-7.15L456,29Zm-2.86-.09-12.18-.38,10.88-6.9Zm-27.16,5.81h0L410,36.78l-1.23-13.84,12.17,6.7Zm-6.61.5-14.81-13,13.62-.28Zm-37.92-1-5-16.83,21.08,3.87ZM346.33,32l-4.18-13.84,16.72-1.26Zm-17,.12-4.49-12.27,12.81-1.28Zm-17.07.14-7.93-12.69,0.2-.36L320,19.82Zm-17.08-.89-12.6-5.49,16.82-4.76Zm-17.37,10L261.57,32.6,278.14,28Zm-18,10.07L242.63,39.53,257,33.81ZM238.5,41.17l5.91,17.75L227,45.75Zm-15,6L230.06,68,210.11,52.44ZM205.42,54.3l-0.85,17L192.65,59.36ZM182.5,80.18L171.36,67.81l16.79-6.66ZM160.27,88.3l-6.48-13.76,13.74-5.24Zm-15.92,3-3.45-12a1.34,1.34,0,0,0,.28-0.38,1,1,0,0,0,0-.12l8.5-3.06ZM138.2,80.06l3.7,12.87-12.59-7.26Zm-12.4,7.7L128.56,100,114,94.87Zm-20.49,34.38-19.36,3.37,7-14.12ZM83.9,129.48l13.37,8-0.27.19-19.35,1.16Zm-9.73,24.25L66,149.51l8-4.66Zm-12.85,16-3.17,12.5-7.35-5.91h0a1.34,1.34,0,0,0,.06-0.39Zm-13,8.16L55.88,184,42.11,185.8Zm8,8.84L48.38,199l-7.13-10.3Zm-8.65,18.41L53,217.79l-13.6-.69ZM37.08,222.2l4.62,8.44-10,1.25Zm-2,22.18L21.17,246.1l7.39-10Zm-7,14.41-11.94,4.6,3.67-12.23Zm0.49,2.81-5.38,11.57-6.29-7.08Zm-4.9,31.63-8.18-3.81,6.65-9.06Zm9.08-4.68v28.53l-20.2-3.28Zm2.7,33.11,17.3,13.93-24,13.1ZM53.63,338.3l7.08,20.77L28.78,351.9Zm11.83,25,29.85,9-4.09,6.43Zm24.25,17.84-11.26,17.7L66.13,367Zm-18-18.87h30l-4.85,7.62Zm32.81,0.79,14.1,13.43-19-5.75Zm41.27,0,7.67,15.06H127.72Zm3.66,1,27.38,14H156.61Zm28,16.84-15,8.78L158,380.93h19.45v0Zm2.55,1.8-8.77,24.11-7.44-14.61Zm1.76,3.35,1.14,14.32-8.59,6.17Zm2.7-1.31,6.59,9.79-5.49,3.94Zm0.81-3.81H210l-16.68,12Zm27.39,1.54-3.4,34.11-14.37-21.36Zm42.73,17.21-15.45,36.69-28-16.45Zm8,34.18-7.54,38.74-13.49-33.33Zm30.77-23.77v34.4L268.57,432ZM324,418.56v23.62l-25.14,2.75Zm28.57,20.76-17.39,34.32-8.1-29.13Zm35.31,41,2.61,17.11L346,480.29h41.9ZM408.82,514l-7.09,38.27-7.47-48.91Zm48.28,36.41L451.73,603,405,559.52Zm2.42,3.86,39.29,92.48-44.51-41.4Zm42,98.8,1.16,2.73L446.91,678l7.06-69.1ZM488,614.17l20.71,18.2-5,18.85Zm-0.93-4.55,11.37-3.79L506.86,627Zm-1.27-2.53,1.25-29.93,10.35,26.07Zm3.38-32.15,27.33,21.91-16.45,5.48Zm15.55-13.25,18.82-10.46-5,41Zm55.92-7-13.36,13.19-18-17.25Zm28-21.09,11.29,9.4L569,550.87Zm33.15-5.18,11,6.37L608,541Zm29.91-6.82,8.24,4L641.72,532Zm21.35-9.84,4.65,2.77-10,6.76Zm8.66-14.5,12.55-1.06-12.55,14.5V497.25h0Zm14.66-4-12.1,1,14.07-13Zm-3.79-28.67,11.23-10-4.16,19.6Zm17.75-32.67,11.93,7.53-14.44,8.91Zm4.4-15.55,16,2.55-6.53,16Zm20.16-.64,2.24-5.82,1.06,5.7Zm3.83,2.66,1.64,8.8-4.84-8.68Zm1.06-9.59,5.09,6.56-3.84.15ZM753,393.35l-0.35,1.19-0.52-6.22,1.88-.89Zm2.08-12.17-3.8-4.92,5.42-4.56Zm9.82-40.87,6.09,8.12L760.8,364.31Zm7,4.73L766,337.23l8.29-2.34Zm-6.24-10.61,3-16.16,5.5,13.75ZM766,312.91l-16.61,5.54V295.62L766,312.53v0.38Zm-16.64-24.38-4.53-14,16.52,8.76Zm-5.75-17.7-4.73-14.56,16.87,7.14Zm-6.39-19-6-13.88L744.81,243ZM724.72,223l15,1.64-10.36,8.93Zm-7.6-17.78,0.14-.25,16.28,1.23-10.41,12.25ZM716.57,201a1.35,1.35,0,0,0-.49.48l-0.24.41-0.18.23H715.6L710.9,189l15.24,0.3Zm-11.28-27.71,11.27-.89L709.15,184Zm-7.5-4.22,1.54-4.13,2,5.73Zm-4.66-10,2.4-4.72,1.75,4.89Zm-0.07-9.92,0.16-1.23,0.47,1.32Zm-5.28-10,0.6-4.79,1.68,4.71ZM680.84,137l-1.15-5.46,5.47-1Zm-3.35-2.31-2.7-2.27,2.14-.38Zm-3.3-5,1.18-5,1,4.65Zm-2.17-3-2.18-6.06,4-1.63Zm-2.53,1.25-5.73-4.83,3.48-1.42Zm-6.3-7.62,1-7.26,2.15,6Zm-2.41-3.11-3.16-7.34,4.33-1.58Zm-2.49,1.29-7.36-6.2,4.06-1.47Zm-7.35-9.19,0.3-7.18,2.63,6.11Zm-2.62-4.25-3.56-7.61L648.71,96Zm-1.22,4-10.33-8.71,5.36-1.95Zm-11-11.43,1.14-9.77,3.74,8Zm-2.47-3-3-8.3,4.29-2.47Zm-2.68.82-6.57-5.54,3.76-2.16ZM623.76,87V75.89l3.35,9.17ZM621,83.11L617.58,75,621,71.61v11.5Zm-2.15,2.13L612.56,80l2.87-2.86Zm-6.49-9,0.28-5.92,1.66,4Zm-2.75-1-4-6.48,4.51-3.7Zm-2.07,2-8-3.54,3.8-3.12Zm-9.28-6.07-0.58-9.75,4.22,6.77ZM595.39,70L590,61.43l4.64-3.85Zm-3,.52-8.63-3.85,4.06-3.37Zm-9.64-6.65-0.64-9.57,4.2,6.62Zm-3-2.54-5.13-7.75L579,50Zm-1.41,2.94-10.06-4.48a1.38,1.38,0,0,0-.37-0.88l4.51-3.58Zm-11.52-8.07-0.71-10.41L570.87,53Zm-3-2.29-4.61-7.3,3.9-3.1Zm-1.18,3.38L551.87,52.4,557,48.29ZM551,49.5l-0.26-11.14,4.78,7.56Zm-13.75,18-3.47-20.12,13.1,5.83ZM530,44.26l-15.23-2.54,9.57-8.38Zm-3.49-12.82,4.57-4L530.8,39.71ZM514.89,37.9l5.33-12.52,2.8,5.41Zm-3.62,1.37-2.89-9.57L518,23.48Zm-2.33,2-14.35-2.61,11.35-7.34Zm-16.68-5.69-1.81-10,9.5-3Zm-2.48,2-19.64-5.49,17.62-5.62Zm-20.92-8,17.75-9.43,0.65,3.56Zm-5.21-.4-3.37-9.06,20.78-.2Zm-3.38-1L446,20.2l11.34-.11Zm-35.32-1,1.2-12,11.32,4.06Zm-2.81,0-11.55-6.36,12.82-6.26ZM390.34,19l7.39-9,6.18,8.76Zm-25-4.67,11.79-9.17,7.64,12.74Zm-21.64.9L350.11,3.9l9.7,10.1ZM324.94,17l4.79-11.47,7.74,10.21ZM260.31,30l3.41-12.73,14,7.84ZM225.25,43.42l1.23-12.51,10.75,7.76ZM208.8,50l2.52-13.21,10.38,8.1ZM170.92,65l3.29-12.24,12.46,6Zm-16.74,6.4L158.1,60l8,6.8Zm-13.59,4.67L142,66.56l8.43,6Zm-12.66,7.16-0.53-9.51L136.16,78ZM113.36,92l1-10.88,9.78,4.4ZM104,98.86L103,90l6,5.19ZM93.76,106.4l-4.4-6.68,10.53,2.16ZM83.48,124.18l-5.15-10.83,11.87-2.79Zm-8.71,13.93-5.91-11.83,12.38,2.12Zm-11.43,9.71-5-4.69L71.66,143Zm-2.14,4.12,0.33,12.38-11.91-9Zm-0.8,15-10.54,6.23-1.24-15.1ZM39.7,184.25l-2-11.4L46.17,176Zm-1.36,5.18,7.58,10.92H28.13Zm7.22,13.72L37.18,215.4l-9.4-12.25H45.56ZM35.15,219.92l-6.6,11.81-7.11-12.3ZM17.89,245.81l-7.66-8.73,15.35-1.65Zm-4.68,17.57L6.13,256l10.78-5Zm1.06,4,6.85,7.7-16,1.21Zm6.15,10.56-7,9.59-8.76-8.4Zm-6.65,13.79,6.74,3.14L7.64,300.09Zm8.47,5.47L10.12,312.35l-3.58-8.8ZM32.86,320l0.07,0.14-7.4,30.11-13.71-33.7ZM29.7,355l30.45,6.85L52.37,376ZM51,378.58l-7.22,13.18L29,358.11Zm11.08-14.4,12.59,32.58L54.48,378Zm30.05,18.39,10,6L82,398.48Zm1.5-2.36,4.47-7,22,6.65-14.91,7.3Zm29.53,1.22,9.5,22.23L108,388.86Zm3.79,1.76,22.19,14.36-12.84,7.53Zm1.65-2.27h26.3l5.2,10.2L151.83,396Zm32.77,12.7,6.46,12.69-13.36-8.65Zm21.79,10,0.68,8.51-9.17-2.42Zm2.65-1.91,6.8-4.88L207,418.28l-20.3-5.38Zm21.95,19.63L189.13,443.2l-2.19-27.36Zm8.44,4.32,22,12.88-6.58,6.1Zm13.31,20.88-17.84,16.53V424.53Zm10.44-5.86,11.58,28.61-18.19-22.48Zm25.81-4.27,10.89,23.32L258.44,474Zm2.39-1.5,24.76,12-14,11Zm25.55,15-4.06,31-9.51-20.36Zm2.9-.61L310,459.85l-17.63,21.39Zm2.5-1.6,23-2.52-10.29,12.48Zm25.66-1.32,7.61,27.37L314,459.41Zm65.53,53.9a1.41,1.41,0,0,0,.5.09H391l8,52.46-59.67-72.11Zm61.1,106.15-6.88,67.33L405.22,563.55Zm51.1,52.4-8.2,66-46.47-44.22ZM506.2,653l4.55-17.25,11.73,22.58Zm-5.08-48,16.28-5.43L510,627.43Zm25-51.35,11.52,23.83L521.3,593.54Zm3.83,1.49,15.38,14.76-5.59,5.52Zm19.4,14.73L561,558.27l-4.83,18.12Zm14.41-10.86,9.56,33.86-14.8-14.2Zm2.33-2,21.55,14.25-11.2,22.37Zm1-2.67,33.2-8.42-11.43,22.81ZM601.86,549l1.83,29.45-12.46-8.24Zm2.67-2.2,14.56,11.67L606.41,577Zm1.48-2.4,27.36-6.83-12.7,18.58Zm28.47-3.5-3,23.86-8.57-6.87Zm3.19-2.85,9.2,7.82-12.3,16.45Zm1.7-2.23,20.39-7.2-11.21,15Zm20.42-2.56-5,15.67-4.11-3.5Zm4.63-5.3,3.88,2.57L659,544.81Zm1.74-2.2,9.3-6.29-5.64,8.71Zm12.16-5.55-1.42,12.67-4.75-3.15Zm16.76-20.6L691,518l-8.41-4Zm5.75-16L704,494.2l-4.79-.83Zm5.9-29.11,7.72,10.87-12.16,10Zm17.62-13.11,7,11.79-21.47-2.84Zm8.93-21.35,6.92,12.42-13.6,3.93Zm9.91,6.64-1.59-8.49,4.14-.16Zm21.79-14-1.89,16.67-12.51-12.51Zm-6.83-18.23,16.69-1-7.48,14.28Zm-2-2.69,1-6a1.42,1.42,0,0,0,.16-0.19,1.37,1.37,0,0,0,.13-0.23,1.34,1.34,0,0,0,.08-0.25,1.39,1.39,0,0,0,0-.8v-0.13h0l2-11.85,16,18.38Zm16.45-40.66,8.32,16.64-19.2.34Zm8.68,11.1L774.14,348l2.5-10.42L780,346Zm-6.42-36.45-4.78-11.94,3.91-1.59Zm-25.25-34a1.39,1.39,0,0,0,.32-0.45l12.69-5.49,2.8,22.07Zm-3-19.48,11-6.75,4.4,15Zm-7-18.83L746.8,245h0l8.45,15.09Zm-7.77-18.32,10.41-9,3,14Zm-6.47-14.91L736.57,207l4.5,15Zm-6.22-17.94,10.15-12.44,6.15,13.68Zm-7.93-16.2,8.24-13,8,13.32Zm-5.42-15.73,3.92-11.83,7.49,10.93Zm-2.22-2.19-4.81-13.44,8.59,2Zm-6.39-17.85-3.41-9.53a1.38,1.38,0,0,0-.47-1.32l-1.84-5.15,7.17,8.2Zm-18-21.57-1.65-7.84,7.36,6.82ZM668.9,118l-2.68-7.45,6.4,5.93Zm-12.38-10.71-4.1-9.53,8.55,7.91Zm-13-12.38-4.4-9.4,8.53,7.9Zm-14-11.27L625.7,73l8.56,7.92ZM616.41,72.19l-2.92-7,6.7,3.26ZM604,66.34l-5.15-8.27,9.56,4.65ZM588.46,59l-5.55-8.76,10.16,4.94Zm-15.39-7.88-5.54-8.36,10,4.85Zm-15.33-7-5.59-8.84,10.37,5Zm-9.59,2.16-5.09-8.39,4.8-3.77Zm-0.8,4.07-12.87-5.73,6.36-5ZM533.54,41.8l0.31-13.7,5.53,9.11Zm-8.36-13-2.84-5.49,7.38,1.52Zm-17.65-2-1.68-5.57,8.51,1.15Zm-17.6-4.11-0.64-3.5,8.25,1.07Zm-30.7-5.52-2-5.42L478.17,17Zm-16.47-1.48,1.42-6.62,6.81,1.4ZM439.65,17l-11.44-4.11,13-3.33Zm-31.73,1.94a1.42,1.42,0,0,0-.59-0.23L400.22,8.62l20.33,4.13Zm-20-1.35-7.7-12.84L395.71,8Zm-25.26-4.65-9.51-10,20.66,1.29Zm-22.08,2.27L332,3.93,347.42,3Zm-17.91.1L314,6.78l13.16-2.25Zm-19.77,1h-0.23a1.35,1.35,0,0,0-.59.11l-9-7.14,14.68-1.73ZM280.37,23.4l-13.76-7.68,22.1-5.52Zm-23,6.73-12.81-7.22,16.23-5.52ZM238.74,36.3L228,28.55l12.71-4.33Zm-15.3-5.85a1.4,1.4,0,0,0,.3-0.21L222.58,42l-9.18-7.16ZM206,49.59l-10.49-7L208.42,37Zm-17,7.17-12.38-6,14.15-6.16Zm-21,8.05L160,58l11.13-4.85ZM151.7,70l-7.86-5.56,11.36-4.59Zm-13.89,5.73-8.75-4.31,10.11-4.9ZM124.6,73.8l0.5,9-8.92-4Zm-14.13,19-6.9-6,7.93-5.09Zm-10.36-3.57,1.1,10.07L89.69,96.93Zm-13.79,11,4.79,7.28L79.53,110.2ZM76.17,115.32L81,125.53l-11.72-2Zm-9.95,12,6.45,12.89-14.81.17ZM55.21,144l5.49,5.19-10.41,3.06Zm-8.14,29.38-9.82-3.66,8.64-10.64Zm-10,11.8-9.28-3.42L35,173.43ZM26.6,184.3l9.4,3.49L26.53,198Zm-1.08,20.51L35,217.11l-14-.5Zm-6.6,15.86,6.89,11.92-15.26,1.64ZM8.33,239.16l8,9.08-11.1,5.09ZM4.27,258.09l7.49,7.82-8.7,8.48Zm7.45,31.71-6.66,9.07L3.2,281.63Zm11.53,65.56-1.4,13.4-6.92-7.65Zm2.55,2.51,13.06,29.7-14.48-16Zm27.29,22.67,20.45,19-27.78-5.63ZM105,390.32l24.68,14.83L83.25,401Zm46.76,8.93,14.16,9.16-25.82-2.32Zm32.31,15.85,1.9,23.76-12-26.44Zm24.79,9.28V463.2L190,446.56Zm22.4,24.37,21.38,26.41-39.52-9.6Zm46.59,13.61,10,21.47-28.43-7Zm34.39-.79,19.31,15.12-37.62,7.11ZM492.85,727.31l-25,11.1-19.25-53.2Zm1.88,2.23,30,53.71-55-42.61Zm19.79,29.64a1.35,1.35,0,0,0,.31-0.4l9.44-19,3.21,42.62ZM511.8,631.73l7-26.35,4.49,48.36Zm27.11-51.63,10,20.7-26.56-4.35ZM552.33,601a1.36,1.36,0,0,0,.38-0.62l5-18.66,15.5,14.86ZM590,572.71L602.6,581l-23.27,13Zm31.31-12.51,8.65,6.93-20.44,10.32ZM649,547.67l4.2,3.57-14.37,10Zm21.63-15.6,4.94,3.27-13.09,9.32Zm10.91-15.51,8.18,3.88-9.82,10.74Zm17.17-20.43L703.8,497l-8.49,14.57Zm7.65-3.88L702.64,480l9.71,0.58Zm7-14.44-8.89-.54,10-8.19Zm2.79-15.12-0.11.09-6.86-9.66L729,455.76Zm18.43-9.46-7-11.83L747,448.77Zm-6-14.45L741.47,435h0.24a1.43,1.43,0,0,0,.45.34l6.36,10.89Zm19.9-20L761,431.27l-16.45.88Zm19.45-7,4.85,2.86-6.52,11.89Zm5.72,0.12-4-2.35,6.84-13Zm4-22.79L761.94,371l19.84-.35Zm-4.23-79.58-4.51,1.83a1.4,1.4,0,0,0-.32-0.25L766,290.49Zm-67-155.82-6.75-1.6,1.25-6.77ZM545.81,32.23l-4.21,3.3L537,27.94ZM22.89,352.2l-9,6.23L11,338.3Zm728.77,94-6.57-11.26,16.41-.88Z" transform="translate(0 0)"/></svg>