<?xml version="1.0" encoding="utf-8"?>
<!-- Generator: Adobe Illustrator 18.1.1, SVG Export Plug-In . SVG Version: 6.00 Build 0)  -->
<svg version="1.1" id="Layer_1" xmlns="http://www.w3.org/2000/svg" xmlns:xlink="http://www.w3.org/1999/xlink" x="0px" y="0px"
	 viewBox="24.7 26.3 238.3 219" style="enable-background:new 24.7 26.3 238.3 219;" xml:space="preserve">
<style type="text/css">
	.st0{fill:#231F20;}
	.st1{fill:#00A1DF;}
</style>
<g>
	<g>
		<path class="st0" d="M238.3,195.9c-3.3,0-6.5,0.7-9.3,1.8l-23.2-41.4c6.8-4.4,11.3-12,11.3-20.7c0-13.6-11.1-24.7-24.7-24.7
			c-3.8,0-7.4,0.9-10.6,2.4L158,71.2c-1.4,1-2.9,1.9-4.5,2.5l23.8,42.4c-5.9,4.5-9.7,11.6-9.7,19.6c0,6.9,2.9,13.2,7.5,17.7
			l-21.2,44.7c-3.1-1.4-6.5-2.1-10-2.1c-2.9,0-5.7,0.5-8.3,1.4l-23-44.1c4.6-4.5,7.4-10.7,7.4-17.6c0-8-3.8-15-9.7-19.6l23.7-42.4
			c-1.6-0.7-3.1-1.5-4.5-2.5L106,113.4c-3.2-1.5-6.8-2.4-10.6-2.4c-13.6,0-24.7,11-24.7,24.7c0,8.7,4.5,16.3,11.3,20.7l-23.2,41.4
			c-2.9-1.2-6-1.8-9.3-1.8c-13.6,0-24.7,11.1-24.7,24.7c0,13.6,11.1,24.7,24.7,24.7s24.7-11,24.7-24.7c0-8.5-4.3-16-10.8-20.4
			l23.2-41.5c2.7,1.1,5.7,1.7,8.8,1.7c4.9,0,9.4-1.4,13.2-3.8l22.4,43.1c-7.1,4.3-11.8,12.1-11.8,21c0,13.6,11.1,24.7,24.7,24.7
			c13.6,0,24.7-11,24.7-24.7c0-8.2-4-15.5-10.2-20l20.9-44c3.8,2.4,8.2,3.8,13,3.8c3.1,0,6.1-0.6,8.8-1.7l23.2,41.5
			c-6.5,4.4-10.8,11.9-10.8,20.4c0,13.6,11.1,24.7,24.7,24.7s24.7-11,24.7-24.7C263,207,251.9,195.9,238.3,195.9z"/>
	</g>
	<circle class="st1" cx="143.9" cy="51" r="24.7"/>
</g>
</svg>
