<svg version="1.1" id="Layer_1" xmlns="http://www.w3.org/2000/svg" xmlns:xlink="http://www.w3.org/1999/xlink" x="0" y="0" viewBox="0 0 1792 1792" xml:space="preserve" enable-background="new 0 0 1792 1792"><style type="text/css">.st0{fill:#0a90cb}</style><path class="st0" d="M1596,380c18.7,18.7,34.7,44,48,76s20,61.3,20,88v1152c0,26.7-9.3,49.3-28,68s-41.3,28-68,28H224	c-26.7,0-49.3-9.3-68-28s-28-41.3-28-68V96c0-26.7,9.3-49.3,28-68s41.3-28,68-28h896c26.7,0,56,6.7,88,20s57.3,29.3,76,48L1596,380z M1152,136v376h376c-6.7-19.3-14-33-22-41l-313-313C1185,150,1171.3,142.7,1152,136z M1536,1664V640h-416c-26.7,0-49.3-9.3-68-28	s-28-41.3-28-68V128H256v1536H1536z M361,768v107h70l164,661h159l128-485c4.7-13.3,8-28.7,10-46c1.3-10.7,2-18.7,2-24h4l3,24	c0.7,2,1.8,8.7,3.5,20c1.7,11.3,3.5,20,5.5,26l128,485h159l164-661h70V768h-300v107h90l-99,438c-3.3,13.3-5.7,28.7-7,46l-2,21h-4	l-3-21c-0.7-3.3-2-10.3-4-21s-3.7-19-5-25L953,768H839l-144,545c-1.3,6-2.8,14.2-4.5,24.5s-2.8,17.5-3.5,21.5l-4,21h-4l-2-21	c-1.3-17.3-3.7-32.7-7-46l-99-438h90V768H361z"/></svg>