<svg version="1.1" id="Layer_1" xmlns="http://www.w3.org/2000/svg" xmlns:xlink="http://www.w3.org/1999/xlink" x="0" y="0" viewBox="0 0 345.867 79.746" enable-background="new 0 0 345.867 79.746" xml:space="preserve"><path fill="#221F1F" d="M127.772,28.608v9.827c0,3.546,0.312,33.517,0.312,24.981c-1.896-6.482-3.664-11.575-5.725-16.558 l-7.289-18.251h-9.689v50.135h9.357V40.036c0-3.063-0.29-8.863-0.29,4.58c1.812,6.177,3.562,11.283,5.638,16.28l7.287,17.848 h9.759V28.608H127.772z"/><path fill="#221F1F" d="M162.196,73.127h-0.136c-1.334,4.48-3.874,6.552-8.086,6.618c-6.885,0-8.425-3.543-8.425-9.826V41.042 h8.689v25.804c0,1.669-0.065,3.542,0.869,5.013c0.736,0.801,1.54,1.201,2.676,1.201c4.078,0,4.008-4.611,4.008-7.552V41.042h8.694 v37.701h-8.289V73.127z"/><path fill="#221F1F" d="M188.197,44.92h0.133c1.94-4.145,5.48-4.747,8.289-4.88c3.209-0.067,7.485,1.338,8.02,4.88h0.136 c1.666-3.276,4.407-4.88,8.689-4.88c6.414,0,9.224,4.011,9.224,8.021v30.682H214V53.275c0-3.41-0.337-6.751-4.147-6.551 c-3.743,0.2-4.412,2.807-4.412,7.219v24.8h-8.689V52.808c0-3.343-0.267-6.151-4.279-6.083c-4.075,0.068-4.276,3.076-4.276,7.219 v24.8h-8.692V41.042h8.692V44.92z"/><path fill="#221F1F" d="M230.639,54.011c-0.402-8.892,4.146-13.971,12.701-13.971c12.099,0,13.37,6.283,13.37,16.578v5.08h-17.38 v5.481c0.067,4.946,1.938,5.881,4.543,5.881c3.211,0,4.145-2.337,4.013-7.085h8.689c0.334,8.423-3.141,13.771-12.03,13.771 c-10.025,0-14.106-4.747-13.905-15.842V54.011z M248.018,55.014v-3.277c-0.065-3.809-1.067-5.013-4.545-5.013 c-4.343,0-4.143,3.342-4.143,6.752v1.538H248.018z"/><path fill="#221F1F" d="M273.281,44.92h0.136c1.939-4.347,5.816-4.88,7.821-4.88c4.947,0,8.958,2.875,8.689,9.625v29.079h-8.689 V53.609c0-3.677-0.404-6.082-3.676-6.216c-3.276-0.133-4.412,2.94-4.281,6.953v24.398h-8.688V41.042h8.688V44.92z"/><path fill="#221F1F" d="M310.782,78.877c-5.146,0.602-12.364,1.068-12.364-5.949l-0.066-42.248h8.754v10.361h10.769l-2.121,6.351 h-8.647v23.396c0.198,1.604,2.605,1.404,3.676,1.271V78.877z"/><path fill="#221F1F" d="M337.648,78.743c-0.603-1.203-0.671-2.541-0.535-3.877h-0.136c-1.003,1.538-2.136,2.808-3.476,3.609 c-1.268,0.803-2.671,1.27-4.143,1.27c-7.02,0-10.093-3.543-10.093-11.297c0-8.624,6.083-10.694,12.899-13.503 c3.677-1.538,5.016-3.209,4.279-6.283c-0.401-1.672-1.736-1.939-4.078-1.939c-3.944,0-4.61,2.072-4.545,5.481h-8.29 c-0.067-7.151,2.274-12.165,13.172-12.165c11.827,0,12.561,6.216,12.428,11.162v22.26c0,1.807,0.269,3.543,0.736,5.282H337.648z M336.444,58.891c-2.138,1.47-4.746,2.94-7.02,4.812c-1.269,1.07-1.47,2.94-1.47,4.545c0,2.876,0.869,4.812,4.078,4.812 c5.148,0,4.211-6.483,4.412-10.092V58.891z"/><path fill="#231F20" d="M76.956,61.106c-1.192,0-2.327,0.239-3.366,0.664l-8.349-14.904c2.44-1.587,4.058-4.333,4.058-7.459 c0-4.917-3.983-8.898-8.897-8.898c-1.375,0-2.67,0.32-3.833,0.876l-8.528-15.225c-0.504,0.357-1.044,0.667-1.619,0.915 l8.561,15.284c-2.114,1.626-3.483,4.173-3.483,7.048c0,2.502,1.036,4.759,2.7,6.375l-7.644,16.095 c-1.104-0.491-2.324-0.77-3.61-0.77c-1.047,0-2.047,0.19-2.98,0.522L31.688,45.75c1.643-1.615,2.665-3.859,2.665-6.344 c0-2.875-1.369-5.422-3.483-7.048l8.553-15.27c-0.575-0.245-1.117-0.553-1.623-0.909l-8.517,15.206 c-1.162-0.556-2.458-0.876-3.832-0.876c-4.913,0-8.897,3.981-8.897,8.898c0,3.127,1.617,5.873,4.057,7.459L12.263,61.77 c-1.039-0.425-2.174-0.664-3.366-0.664C3.984,61.106,0,65.088,0,70.002C0,74.919,3.984,78.9,8.897,78.9 c4.913,0,8.897-3.981,8.897-8.898c0-3.057-1.543-5.752-3.892-7.353l8.369-14.941c0.989,0.379,2.058,0.596,3.18,0.596 c1.749,0,3.375-0.511,4.75-1.382l8.086,15.511c-2.541,1.567-4.241,4.366-4.241,7.571c0,4.915,3.986,8.897,8.899,8.897 s8.899-3.981,8.899-8.897c0-2.96-1.452-5.575-3.675-7.192l7.533-15.86c1.365,0.851,2.972,1.352,4.7,1.352 c1.122,0,2.191-0.216,3.179-0.596l8.369,14.941c-2.348,1.601-3.891,4.296-3.891,7.353c0,4.917,3.983,8.898,8.897,8.898 c4.914,0,8.897-3.981,8.897-8.898C85.853,65.088,81.87,61.106,76.956,61.106z"/><circle fill="#00A1DF" cx="42.927" cy="8.897" r="8.899"/></svg>