<?xml version="1.0" encoding="utf-8"?>
<!-- Generator: Adobe Illustrator 21.0.0, SVG Export Plug-In . SVG Version: 6.00 Build 0)  -->
<svg version="1.1" id="Layer_1" xmlns="http://www.w3.org/2000/svg" xmlns:xlink="http://www.w3.org/1999/xlink" x="0px" y="0px"
	 viewBox="0 0 526.5 94.5" style="enable-background:new 0 0 526.5 94.5;" xml:space="preserve">
<style type="text/css">
	.st0{display:none;}
	.st1{display:inline;fill:#AF5151;}
	.st2{fill:#FFFFFF;}
	.st3{font-family:'HelveticaLTStd-BoldCond';}
	.st4{font-size:63px;}
</style>
<g class="st0">
	<path class="st1" d="M219.6,40.6v9.8c0,3.5,0.3,33.5,0.3,25c-1.9-6.5-3.7-11.6-5.7-16.6l-7.3-18.3h-9.7v50.1h9.4V52
		c0-3.1-0.3-8.9-0.3,4.6c1.8,6.2,3.6,11.3,5.6,16.3l7.3,17.8h9.8V40.6H219.6z"/>
	<path class="st1" d="M254,85.1h-0.1c-1.3,4.5-3.9,6.6-8.1,6.6c-6.9,0-8.4-3.5-8.4-9.8V53h8.7v25.8c0,1.7-0.1,3.5,0.9,5
		c0.7,0.8,1.5,1.2,2.7,1.2c4.1,0,4-4.6,4-7.6V53h8.7v37.7h-8.3L254,85.1L254,85.1z"/>
	<path class="st1" d="M280,56.9h0.1c1.9-4.1,5.5-4.7,8.3-4.9c3.2-0.1,7.5,1.3,8,4.9h0.1c1.7-3.3,4.4-4.9,8.7-4.9c6.4,0,9.2,4,9.2,8
		v30.7h-8.6V65.3c0-3.4-0.3-6.8-4.1-6.6c-3.7,0.2-4.4,2.8-4.4,7.2v24.8h-8.7V64.8c0-3.3-0.3-6.2-4.3-6.1c-4.1,0.1-4.3,3.1-4.3,7.2
		v24.8h-8.7V53h8.7V56.9L280,56.9z"/>
	<path class="st1" d="M322.4,66c-0.4-8.9,4.1-14,12.7-14c12.1,0,13.4,6.3,13.4,16.6v5.1h-17.4v5.5c0.1,4.9,1.9,5.9,4.5,5.9
		c3.2,0,4.1-2.3,4-7.1h8.7c0.3,8.4-3.1,13.8-12,13.8c-10,0-14.1-4.7-13.9-15.8L322.4,66L322.4,66z M339.8,67v-3.3
		c-0.1-3.8-1.1-5-4.5-5c-4.3,0-4.1,3.3-4.1,6.8V67C331.1,67,339.8,67,339.8,67z"/>
	<path class="st1" d="M365.1,56.9L365.1,56.9c2-4.3,5.9-4.9,7.9-4.9c4.9,0,9,2.9,8.7,9.6v29.1H373V65.6c0-3.7-0.4-6.1-3.7-6.2
		c-3.3-0.1-4.4,2.9-4.3,7v24.4h-8.7V53h8.7v3.9H365.1z"/>
	<path class="st1" d="M402.6,90.9c-5.1,0.6-12.4,1.1-12.4-5.9l-0.1-42.2h8.8V53h10.8l-2.1,6.4H399v23.4c0.2,1.6,2.6,1.4,3.7,1.3
		L402.6,90.9L402.6,90.9z"/>
	<path class="st1" d="M429.4,90.7c-0.6-1.2-0.7-2.5-0.5-3.9h-0.1c-1,1.5-2.1,2.8-3.5,3.6c-1.3,0.8-2.7,1.3-4.1,1.3
		c-7,0-10.1-3.5-10.1-11.3c0-8.6,6.1-10.7,12.9-13.5c3.7-1.5,5-3.2,4.3-6.3c-0.4-1.7-1.7-1.9-4.1-1.9c-3.9,0-4.6,2.1-4.5,5.5h-8.3
		C411.3,57,413.7,52,424.6,52c11.8,0,12.6,6.2,12.4,11.2v22.3c0,1.8,0.3,3.5,0.7,5.3L429.4,90.7L429.4,90.7z M428.2,70.9
		c-2.1,1.5-4.7,2.9-7,4.8c-1.3,1.1-1.5,2.9-1.5,4.5c0,2.9,0.9,4.8,4.1,4.8c5.1,0,4.2-6.5,4.4-10.1V70.9z"/>
</g>
<g>
	<g>
		<g>
			<path class="st2" d="M77,61.1c-1.2,0-2.3,0.2-3.4,0.7l-8.3-14.9c2.4-1.6,4.1-4.3,4.1-7.5c0-4.9-4-8.9-8.9-8.9
				c-1.4,0-2.7,0.3-3.8,0.9L48,16.2c-0.5,0.4-1,0.7-1.6,0.9L55,32.4c-2.1,1.6-3.5,4.2-3.5,7c0,2.5,1,4.8,2.7,6.4l-7.6,16.1
				c-1.1-0.5-2.3-0.8-3.6-0.8c-1,0-2,0.2-3,0.5l-8.3-15.9c1.6-1.6,2.7-3.9,2.7-6.3c0-2.9-1.4-5.4-3.5-7l8.6-15.3
				c-0.6-0.2-1.1-0.6-1.6-0.9l-8.5,15.2c-1.2-0.6-2.5-0.9-3.8-0.9c-4.9,0-8.9,4-8.9,8.9c0,3.1,1.6,5.9,4.1,7.5l-8.3,14.9
				c-1-0.4-2.2-0.7-3.4-0.7C4,61.1,0,65.1,0,70s4,8.9,8.9,8.9s8.9-4,8.9-8.9c0-3.1-1.5-5.8-3.9-7.4l8.4-14.9c1,0.4,2.1,0.6,3.2,0.6
				c1.7,0,3.4-0.5,4.8-1.4l8.1,15.5C35.7,64,34,66.8,34,70c0,4.9,4,8.9,8.9,8.9s8.9-4,8.9-8.9c0-3-1.5-5.6-3.7-7.2L55.7,47
				c1.4,0.9,3,1.4,4.7,1.4c1.1,0,2.2-0.2,3.2-0.6L72,62.6c-2.3,1.6-3.9,4.3-3.9,7.4c0,4.9,4,8.9,8.9,8.9s8.9-4,8.9-8.9
				S81.9,61.1,77,61.1z"/>
		</g>
		<circle class="st2" cx="42.9" cy="8.9" r="8.9"/>
	</g>
	<text transform="matrix(1 0 0 1 101.2 78.7)" class="st2 st3 st4">HTM Community</text>
</g>
</svg>
