<svg version="1.1" xmlns="http://www.w3.org/2000/svg" xmlns:xlink="http://www.w3.org/1999/xlink" x="0" y="0" viewBox="0 0 369 81.7" xml:space="preserve" enable-background="new 0 0 369 81.7"><style type="text/css">.st0{fill:#fff}</style><g id="Layer_3"><path class="st0" d="M294.7,69.2v-6.6h6.6v6.6H294.7z"/><path class="st0" d="M305.2,56.2c0.1-9.6,0.2-15.8,9.9-15.8c9.6,0,9.7,6.2,9.7,15.8c0,9.8-1.3,14-9.7,13.8 C306.6,70.1,305.1,65.9,305.2,56.2z M311.7,60.1c0,3.4,0.3,4.9,3.4,4.9c3,0,3.2-1.5,3.2-4.9v-9.4c0-2.6,0-5.3-3.2-5.3 c-3.4,0-3.4,2.7-3.4,5.3V60.1z"/><path class="st0" d="M336.7,46.1L336.7,46.1c0.9-2,1.7-3.2,2.6-4c1.8-1.5,3.1-1.4,4-1.5v7.7c-3.6-0.3-6.3,0.5-6.4,4.7v16.3h-6.5 V41.1h6.2V46.1z"/><path class="st0" d="M353.5,72.4c0,0.6,0.3,1,0.7,1.2c0.5,0.3,1.2,0.4,2,0.4c2.7,0,3.2-2.2,3.2-4.4v-3.2l-0.1-0.1 c-1.3,2.7-3.1,3.5-5.9,3.7c-5.5,0-6.6-4.9-6.7-9.4V50.4c0.2-7.7,2.5-9.9,6.7-10c2.9,0,4.7,1.1,5.6,3.6h0.1v-2.9h6.5v27.3 c0,5.7-1.6,10.3-10.5,10.3c-4.3,0-7.8-1.6-8.2-6.3H353.5z M356.1,45.4c-3,0-2.7,2.6-2.9,5.4v9.4c0.1,2.7,0.8,4.8,2.8,4.8 c2.1,0,3.1-1.7,3.1-5v-8.4C359.3,49.3,359.2,45.4,356.1,45.4z"/><path class="st0" d="M122.6,31.1v7.6c0,2.7,0.2,25.8,0.2,19.2c-1.5-5-2.8-8.9-4.4-12.7l-5.6-14h-7.4v38.5h7.2V39.9 c0-2.4-0.2-6.8-0.2,3.5c1.4,4.7,2.7,8.7,4.3,12.5l5.6,13.7h7.5V31.1H122.6z"/><path class="st0" d="M149,65.3h-0.1c-1,3.4-3,5-6.2,5.1c-5.3,0-6.5-2.7-6.5-7.6V40.7h6.7v19.8c0,1.3,0,2.7,0.7,3.9 c0.6,0.6,1.2,0.9,2.1,0.9c3.1,0,3.1-3.5,3.1-5.8V40.7h6.7v29H149L149,65.3L149,65.3z"/><path class="st0" d="M169,43.6h0.1c1.5-3.2,4.2-3.6,6.4-3.8c2.5-0.1,5.8,1,6.2,3.8h0.1c1.3-2.5,3.4-3.8,6.7-3.8 c4.9,0,7.1,3.1,7.1,6.2v23.6h-6.7V50.1c0-2.6-0.3-5.2-3.2-5c-2.9,0.2-3.4,2.2-3.4,5.5v19.1h-6.7V49.7c0-2.6-0.2-4.7-3.3-4.7 c-3.1,0.1-3.3,2.4-3.3,5.5v19.1h-6.7v-29h6.7L169,43.6L169,43.6z"/><path class="st0" d="M201.6,50.6c-0.3-6.8,3.2-10.7,9.8-10.7c9.3,0,10.3,4.8,10.3,12.7v3.9h-13.4v4.2c0.1,3.8,1.5,4.5,3.5,4.5 c2.5,0,3.2-1.8,3.1-5.4h6.7c0.3,6.5-2.4,10.6-9.2,10.6c-7.7,0-10.8-3.6-10.7-12.2L201.6,50.6L201.6,50.6z M215,51.4v-2.5 c0-2.9-0.8-3.9-3.5-3.9c-3.3,0-3.2,2.6-3.2,5.2v1.2C208.3,51.4,215,51.4,215,51.4z"/><path class="st0" d="M234.4,43.6h0.1c1.5-3.3,4.5-3.8,6-3.8c3.8,0,6.9,2.2,6.7,7.4v22.3h-6.7V50.3c0-2.8-0.3-4.7-2.8-4.8 c-2.5-0.1-3.4,2.3-3.3,5.3v18.8h-6.7v-29h6.7V43.6z"/><path class="st0" d="M263.2,69.7c-4,0.5-9.5,0.8-9.5-4.6l-0.1-32.5h6.7v8h8.3l-1.6,4.9h-6.6v18c0.2,1.2,2,1.1,2.8,1L263.2,69.7 L263.2,69.7z"/><path class="st0" d="M283.9,69.6c-0.5-0.9-0.5-2-0.4-3h-0.1c-0.8,1.2-1.6,2.2-2.7,2.8c-1,0.6-2.1,1-3.2,1c-5.4,0-7.8-2.7-7.8-8.7 c0-6.6,4.7-8.2,9.9-10.4c2.8-1.2,3.9-2.5,3.3-4.8c-0.3-1.3-1.3-1.5-3.1-1.5c-3,0-3.5,1.6-3.5,4.2H270c-0.1-5.5,1.7-9.3,10.1-9.3 c9.1,0,9.7,4.8,9.6,8.6v17.1c0,1.4,0.2,2.7,0.6,4.1H283.9z M283,54.4c-1.6,1.1-3.6,2.3-5.4,3.7c-1,0.8-1.1,2.3-1.1,3.5 c0,2.2,0.7,3.7,3.1,3.7c4,0,3.2-5,3.4-7.8V54.4z"/><path class="st0" d="M77,61.1c-1.2,0-2.3,0.2-3.4,0.7l-8.3-14.9c2.4-1.6,4.1-4.3,4.1-7.5c0-4.9-4-8.9-8.9-8.9 c-1.4,0-2.7,0.3-3.8,0.9L48,16.2c-0.5,0.4-1,0.7-1.6,0.9L55,32.4c-2.1,1.6-3.5,4.2-3.5,7c0,2.5,1,4.8,2.7,6.4l-7.6,16.1 c-1.1-0.5-2.3-0.8-3.6-0.8c-1,0-2,0.2-3,0.5l-8.3-15.9c1.6-1.6,2.7-3.9,2.7-6.3c0-2.9-1.4-5.4-3.5-7l8.6-15.3 c-0.6-0.2-1.1-0.6-1.6-0.9l-8.5,15.2c-1.2-0.6-2.5-0.9-3.8-0.9c-4.9,0-8.9,4-8.9,8.9c0,3.1,1.6,5.9,4.1,7.5l-8.3,14.9 c-1-0.4-2.2-0.7-3.4-0.7C4,61.1,0,65.1,0,70c0,4.9,4,8.9,8.9,8.9s8.9-4,8.9-8.9c0-3.1-1.5-5.8-3.9-7.4l8.4-14.9 c1,0.4,2.1,0.6,3.2,0.6c1.7,0,3.4-0.5,4.8-1.4l8.1,15.5C35.7,64,34,66.8,34,70c0,4.9,4,8.9,8.9,8.9s8.9-4,8.9-8.9 c0-3-1.5-5.6-3.7-7.2L55.7,47c1.4,0.9,3,1.4,4.7,1.4c1.1,0,2.2-0.2,3.2-0.6L72,62.7c-2.3,1.6-3.9,4.3-3.9,7.4 c0,4.9,4,8.9,8.9,8.9s8.9-4,8.9-8.9C85.9,65.1,81.9,61.1,77,61.1z"/><circle class="st0" cx="42.9" cy="8.9" r="8.9"/></g></svg>